<?xml version="1.0" encoding="UTF-8" standalone="no"?>
<!-- Created with Inkscape (http://www.inkscape.org/) -->

<svg
   xmlns:dc="http://purl.org/dc/elements/1.1/"
   xmlns:cc="http://creativecommons.org/ns#"
   xmlns:rdf="http://www.w3.org/1999/02/22-rdf-syntax-ns#"
   xmlns:svg="http://www.w3.org/2000/svg"
   xmlns="http://www.w3.org/2000/svg"
   xmlns:sodipodi="http://sodipodi.sourceforge.net/DTD/sodipodi-0.dtd"
   xmlns:inkscape="http://www.inkscape.org/namespaces/inkscape"
   version="1.1"
   id="svg53670"
   xml:space="preserve"
   width="800"
   height="800"
   viewBox="0 0 800 800"
   sodipodi:docname="gecko-clip-art-publicdomainvectors.org.svg"
   inkscape:version="0.92.4 (5da689c313, 2019-01-14)"><metadata
     id="metadata53676"><rdf:RDF><cc:Work
         rdf:about=""><dc:format>image/svg+xml</dc:format><dc:type
           rdf:resource="http://purl.org/dc/dcmitype/StillImage" /><dc:title></dc:title></cc:Work></rdf:RDF></metadata><defs
     id="defs53674"><clipPath
       clipPathUnits="userSpaceOnUse"
       id="clipPath53686"><path
         d="M 0,600 H 600 V 0 H 0 Z"
         id="path53684"
         inkscape:connector-curvature="0" /></clipPath></defs><sodipodi:namedview
     pagecolor="#ffffff"
     bordercolor="#666666"
     borderopacity="1"
     objecttolerance="10"
     gridtolerance="10"
     guidetolerance="10"
     inkscape:pageopacity="0"
     inkscape:pageshadow="2"
     inkscape:window-width="1920"
     inkscape:window-height="1018"
     id="namedview53672"
     showgrid="false"
     inkscape:zoom="1.0280258"
     inkscape:cx="393.45439"
     inkscape:cy="395.95093"
     inkscape:window-x="-8"
     inkscape:window-y="-8"
     inkscape:window-maximized="1"
     inkscape:current-layer="g53678" /><g
     id="g53678"
     inkscape:groupmode="layer"
     inkscape:label="gecko-clip-art-publicdomainvectors.org"
     transform="matrix(1.3333333,0,0,-1.3333333,0,800)"><g
       id="g53680"><g
         id="g53682"
         clip-path="url(#clipPath53686)"><path
           d="m 329.028,310.623 c 11.839,-0.075 26.915,7.193 74.398,-12.305 51.817,-21.28 94.203,-113.39 190.456,-84.111 4.879,1.484 6.414,-5.59 0.795,-7.113 -102.812,-27.902 -138.705,27.721 -197.715,50.839 -53.137,20.814 -62.634,8.913 -67.019,1.037 -7.396,-12.441 -12.902,-27.472 -36.206,-39.631 0.665,-2.617 7.382,-3.448 16.37,-2.886 4.534,0.285 7.86,1.404 9.299,5.753 0.827,2.505 0.915,5.985 -2.01,9.1 -2.978,3.171 -0.101,8.467 4.687,8.708 4.788,0.24 5.01,-5.137 3.654,-5.977 -3.069,-1.898 -4.581,-7.379 -0.434,-9.859 4.139,-2.474 9.674,2.286 7.778,10.879 -1.31,5.962 7.845,7.479 9.94,3.239 2.106,-4.267 0.256,-8.261 -1.952,-8.167 -2.208,0.095 -6.594,-2.534 -7.699,-6.535 -0.668,-2.413 0.538,-4.467 1.667,-4.957 3.264,-1.416 7.675,-1.295 10.956,5.633 2.251,4.752 8.676,1.566 9.176,-2.063 0.49,-3.62 -1.162,-7.88 -8.239,-6.409 -5.298,1.101 -9.575,-1.409 -10.195,-5.634 -0.558,-3.8 5.204,-9.138 10.722,-8.899 3.359,0.144 5.395,-6.151 1.599,-9.285 -3.023,-2.494 -6.684,-1.259 -8.594,4.709 -2.397,7.483 -10.788,8.511 -11.865,6.872 -2.122,-3.221 1.965,-9.403 3.688,-10.539 1.724,-1.131 1.86,-7.178 -2.9,-7.191 -4.352,-0.012 -5.239,3.52 -4.044,7.722 1.01,3.532 -0.071,8.734 -4.026,10.788 -8.482,4.403 -37.241,-7 -41.257,-8.395 -10.913,-3.796 -20.65,11.056 -17.484,15.462 2.762,3.842 17.346,32.696 17.114,40.205 -9.712,4.817 -39.963,-12.301 -72.105,-4.514 -41.359,10.018 -62.238,30.493 -74.97,33.508 -7.571,1.794 -5.771,-14.81 -26.687,-24.095 -8.015,-3.561 -26.911,3.14 -36.609,5.687 -6.789,1.784 -11.59,-3.723 -13.743,-8.342 -2.153,-4.618 -1.747,-10.57 0.684,-14.952 1.924,-3.468 -1.668,-8.136 -8.031,-6.408 -5.149,1.4 -3.759,7.045 -2.395,8.18 2.227,1.848 6.747,9.602 2.846,13.295 -3.901,3.692 -9.501,-5.665 -12.081,-13.167 -1.378,-4.012 -9.738,-1.367 -11.228,3.718 -1.492,5.086 5.211,7.672 7.587,7.035 2.377,-0.634 7.869,3.422 9.239,5.848 1.483,2.625 0.348,5.293 -0.76,6.097 -3.205,2.329 -10.407,0.897 -15.674,-5.333 -2.465,-2.916 -8.328,2.052 -8.55,6.124 -0.218,3.997 3.163,7.237 10.499,4.968 5.754,-1.782 10.74,-0.788 12.438,3.647 1.526,3.995 -9.959,10.559 -15.223,11.95 -3.434,0.908 -4.475,6.306 -0.013,10.107 2.99,2.546 10.397,0.783 10.802,-6.338 0.496,-8.728 13.26,-11.984 14.875,-10.517 1.615,1.471 0.144,10.692 -1.452,12.341 -1.596,1.649 -0.623,8.331 4.892,7.112 5.835,-1.288 3.951,-5.538 2.519,-9.367 -1.433,-3.829 -1.243,-9.717 1.764,-12.694 3.005,-2.977 32.146,-3.713 36.626,-2.197 4.48,1.515 10.735,21.845 15.542,27.622 -9.229,19.312 -14.626,-8.34 -40.788,0.864 -22.592,7.949 -10.136,9.573 -31.941,24.781 -11.152,7.778 -21.805,18.424 -19.886,33.029 1.966,14.957 19.668,18.184 32.344,18.848 2.759,0.144 12.006,1.472 21.344,6.512 10.33,5.574 37.747,-4.194 40.793,-13.363 3.004,-9.033 4.521,-21.175 24.399,-17.191 -0.076,11.905 35.766,22.382 33.279,26.407 -2.486,4.023 -20.687,23.566 -25.372,21.633 -3.91,-1.614 -9.154,-3.691 -10.223,-8.984 -0.807,-4.006 -1.819,-8.012 -7.137,-5.287 -5.026,2.577 -1.518,8.344 0.763,8.599 2.281,0.253 9.293,6.421 8.985,8.583 -0.31,2.162 -9.177,5.488 -15.238,-0.812 -5.924,-6.162 -10.183,-2.695 -11.615,1.423 -1.924,5.539 3.757,9.486 6.978,7.986 4.346,-2.026 13.775,-1.985 15.145,2.065 1.519,4.5 -4.943,9.417 -9.27,9.626 -7.672,0.368 -7.245,7.179 -4.925,10.52 2.327,3.348 9.657,3.729 10.491,-0.733 1.47,-7.869 6.736,-12.738 10.69,-12.985 1.368,-0.085 3.456,0.693 3.662,3.469 0.342,4.628 0.087,9.383 -2.581,11.142 -2.054,1.352 -5.753,7.289 -1.362,10.255 4.39,2.968 12.07,0.06 10.722,-5.656 -1.513,-6.42 -4.144,-16.84 1.215,-16.48 5.36,0.358 7.215,10.549 6.283,12.058 -0.932,1.509 2.431,7.436 7.058,4.775 4.626,-2.659 5.875,-7.02 2.104,-10.055 -3.771,-3.035 -8.772,-6.156 -10.057,-11.085 -1.285,-4.933 1.915,-11.211 5.959,-14.241 8.288,-6.206 25.406,-16.084 31.023,-25.531 7.469,-12.564 -29.031,-31.401 -22.054,-34.846 11.777,-6.614 31.122,1.723 55.523,-5.554 19.7,-5.874 35.571,-23.272 48.268,-21.508 0.322,7.507 -12.579,37.861 -15.293,41.736 -3.114,4.445 6.804,19.174 17.674,15.248 3.997,-1.445 32.144,-13.358 41.152,-8.901 3.502,1.734 5.191,6.669 4.156,10.738 -0.903,3.558 -1.723,7.796 3.636,8.119 4.347,0.263 5.871,-5.848 3.31,-7.676 -1.675,-1.197 -4.676,-8.73 -3.815,-10.492 1.378,-2.811 9.58,-0.764 11.949,6.725 2.316,7.322 7.125,6.228 9.922,3.481 3.754,-3.692 -0.435,-8.332 -3.579,-7.799 -5.448,0.922 -10.744,-5.302 -10.233,-9.11 0.569,-4.229 4.812,-6.792 10.122,-5.757 7.095,1.385 8.695,-2.896 8.162,-6.509 -0.545,-3.623 -7.008,-6.728 -9.201,-1.949 -3.194,6.968 -7.603,7.142 -10.885,5.766 -1.135,-0.475 -2.366,-2.517 -1.727,-4.937 1.056,-4.012 5.923,-7.208 8.136,-7.142 2.206,0.065 4.01,-3.948 1.85,-8.192 -2.147,-4.213 -11.287,-2.582 -9.898,3.362 1.998,8.568 -3.993,13.91 -8.165,11.485 -4.173,-2.425 -2.733,-7.926 0.314,-9.862 1.348,-0.856 1.06,-6.228 -3.726,-5.93 -4.788,0.298 -7.597,5.631 -4.581,8.764 2.963,3.078 3.25,6.454 2.449,8.97 -1.382,4.365 -5.026,5.629 -9.556,5.97 -8.98,0.675 -15.707,-0.075 -16.404,-2.684 23.153,-12.445 30.96,-29.462 38.2,-41.993"
           style="fill:#949595;fill-opacity:1;fill-rule:nonzero;stroke:none"
           id="path53688"
           inkscape:connector-curvature="0" /><path
           d="m 316.305,330.406 c 11.838,-0.076 26.915,7.193 74.397,-12.302 51.818,-21.283 94.202,-113.393 190.456,-84.114 4.88,1.486 6.413,-5.59 0.796,-7.114 -102.812,-27.9 -138.707,27.724 -197.716,50.839 -53.137,20.816 -62.634,8.914 -67.018,1.038 -7.397,-12.44 -12.903,-27.471 -36.209,-39.632 0.668,-2.615 7.383,-3.448 16.373,-2.885 4.534,0.285 7.859,1.405 9.298,5.754 0.828,2.504 0.915,5.985 -2.01,9.099 -2.977,3.171 -0.101,8.469 4.687,8.708 4.787,0.239 5.01,-5.138 3.654,-5.976 -3.07,-1.899 -4.579,-7.381 -0.434,-9.859 4.14,-2.476 9.674,2.284 7.778,10.877 -1.31,5.962 7.845,7.481 9.939,3.24 2.107,-4.267 0.258,-8.26 -1.95,-8.167 -2.208,0.095 -6.595,-2.534 -7.7,-6.535 -0.666,-2.413 0.54,-4.467 1.667,-4.956 3.264,-1.418 7.676,-1.297 10.957,5.631 2.25,4.754 8.675,1.566 9.175,-2.062 0.491,-3.621 -1.163,-7.881 -8.239,-6.409 -5.298,1.102 -9.573,-1.409 -10.194,-5.634 -0.558,-3.8 5.205,-9.137 10.721,-8.899 3.36,0.145 5.395,-6.151 1.598,-9.284 -3.021,-2.495 -6.683,-1.26 -8.593,4.71 -2.397,7.48 -10.788,8.509 -11.865,6.87 -2.122,-3.22 1.965,-9.403 3.69,-10.538 1.721,-1.133 1.857,-7.179 -2.902,-7.193 -4.351,-0.009 -5.239,3.52 -4.043,7.724 1.01,3.531 -0.073,8.733 -4.026,10.788 -8.482,4.4 -37.241,-7.001 -41.258,-8.396 -10.913,-3.796 -20.65,11.055 -17.483,15.462 2.761,3.841 17.346,32.697 17.114,40.205 -9.713,4.816 -39.964,-12.301 -72.106,-4.514 -41.359,10.019 -62.238,30.493 -74.969,33.509 -7.572,1.794 -5.772,-14.811 -26.687,-24.096 -8.015,-3.561 -26.911,3.141 -36.61,5.687 -6.789,1.786 -11.59,-3.723 -13.742,-8.341 -2.153,-4.62 -1.747,-10.571 0.684,-14.953 1.923,-3.469 -1.668,-8.137 -8.031,-6.408 -5.15,1.4 -3.76,7.045 -2.395,8.18 2.226,1.848 6.746,9.603 2.845,13.294 -3.901,3.693 -9.501,-5.663 -12.081,-13.166 -1.378,-4.011 -9.737,-1.367 -11.228,3.718 -1.491,5.086 5.211,7.673 7.587,7.036 2.377,-0.635 7.869,3.422 9.24,5.847 1.482,2.625 0.347,5.292 -0.761,6.098 -3.204,2.329 -10.406,0.897 -15.674,-5.335 -2.464,-2.914 -8.329,2.053 -8.55,6.125 -0.217,3.998 3.162,7.236 10.5,4.968 5.753,-1.781 10.74,-0.787 12.437,3.646 1.527,3.997 -9.959,10.56 -15.223,11.952 -3.433,0.906 -4.475,6.305 -0.013,10.107 2.99,2.545 10.397,0.784 10.802,-6.338 0.496,-8.73 13.26,-11.986 14.875,-10.516 1.616,1.469 0.145,10.69 -1.451,12.34 -1.597,1.648 -0.623,8.33 4.891,7.113 5.835,-1.289 3.951,-5.54 2.519,-9.37 -1.432,-3.827 -1.242,-9.715 1.763,-12.694 3.007,-2.976 32.147,-3.712 36.627,-2.196 4.48,1.515 10.736,21.846 15.542,27.624 -9.229,19.31 -14.627,-8.341 -40.787,0.863 -22.593,7.949 -10.136,9.572 -31.941,24.78 -11.153,7.778 -21.805,18.424 -19.886,33.029 1.965,14.957 19.667,18.184 32.343,18.848 2.759,0.143 12.007,1.471 21.345,6.512 10.33,5.574 37.747,-4.194 40.793,-13.363 3.002,-9.033 4.52,-21.175 24.398,-17.191 -0.076,11.905 35.766,22.382 33.279,26.408 -2.486,4.023 -20.687,23.565 -25.371,21.631 -3.91,-1.612 -9.155,-3.69 -10.223,-8.982 -0.809,-4.007 -1.819,-8.013 -7.137,-5.288 -5.027,2.577 -1.518,8.344 0.762,8.599 2.282,0.254 9.294,6.42 8.985,8.583 -0.31,2.163 -9.176,5.488 -15.237,-0.812 -5.925,-6.163 -10.184,-2.696 -11.615,1.422 -1.924,5.54 3.757,9.488 6.977,7.987 4.347,-2.026 13.775,-1.984 15.145,2.066 1.518,4.499 -4.943,9.417 -9.27,9.625 -7.672,0.368 -7.244,7.18 -4.924,10.519 2.327,3.349 9.657,3.731 10.491,-0.731 1.469,-7.869 6.735,-12.739 10.689,-12.986 1.368,-0.085 3.457,0.693 3.663,3.469 0.341,4.628 0.086,9.383 -2.582,11.142 -2.053,1.351 -5.753,7.289 -1.361,10.256 4.389,2.967 12.07,0.058 10.722,-5.657 -1.514,-6.42 -4.144,-16.84 1.215,-16.481 5.359,0.359 7.214,10.549 6.283,12.059 -0.933,1.509 2.431,7.436 7.057,4.776 4.626,-2.66 5.876,-7.021 2.105,-10.056 -3.771,-3.035 -8.773,-6.156 -10.057,-11.086 -1.286,-4.932 1.914,-11.21 5.959,-14.239 8.287,-6.206 25.406,-16.084 31.022,-25.532 7.468,-12.564 -29.031,-31.401 -22.054,-34.845 11.777,-6.615 31.122,1.721 55.522,-5.555 19.702,-5.874 35.572,-23.272 48.268,-21.507 0.324,7.507 -12.577,37.86 -15.292,41.735 -3.114,4.445 6.805,19.175 17.675,15.248 3.995,-1.444 32.143,-13.357 41.15,-8.9 3.503,1.733 5.194,6.668 4.158,10.737 -0.904,3.559 -1.724,7.796 3.636,8.12 4.348,0.261 5.87,-5.85 3.31,-7.676 -1.677,-1.198 -4.677,-8.731 -3.816,-10.493 1.378,-2.811 9.579,-0.764 11.949,6.725 2.316,7.323 7.126,6.228 9.923,3.481 3.753,-3.692 -0.435,-8.331 -3.58,-7.799 -5.447,0.922 -10.743,-5.302 -10.232,-9.109 0.568,-4.23 4.812,-6.793 10.12,-5.758 7.097,1.386 8.697,-2.896 8.162,-6.509 -0.544,-3.623 -7.007,-6.729 -9.199,-1.948 -3.194,6.966 -7.603,7.141 -10.886,5.765 -1.135,-0.475 -2.365,-2.517 -1.727,-4.937 1.056,-4.012 5.924,-7.208 8.135,-7.142 2.206,0.065 4.011,-3.949 1.851,-8.192 -2.147,-4.213 -11.286,-2.582 -9.899,3.363 1.999,8.567 -3.992,13.909 -8.165,11.484 -4.171,-2.425 -2.731,-7.926 0.316,-9.862 1.348,-0.856 1.058,-6.228 -3.727,-5.93 -4.788,0.298 -7.596,5.631 -4.581,8.764 2.963,3.078 3.249,6.455 2.45,8.97 -1.383,4.365 -5.028,5.63 -9.556,5.97 -8.98,0.675 -15.706,-0.075 -16.405,-2.685 23.154,-12.444 30.96,-29.46 38.201,-41.992"
           style="fill:#110f0d;fill-opacity:1;fill-rule:nonzero;stroke:none"
           id="path53690"
           inkscape:connector-curvature="0" /><path
           d="m 449.433,255.198 c 2.064,-0.551 4.18,0.671 4.733,2.735 0.553,2.062 -0.672,4.179 -2.735,4.733 -2.062,0.551 -4.18,-0.674 -4.733,-2.734 -0.551,-2.065 0.671,-4.181 2.735,-4.734"
           style="fill:#211d1d;fill-opacity:1;fill-rule:nonzero;stroke:none"
           id="path53692"
           inkscape:connector-curvature="0" /><path
           d="m 460.966,240.629 c 2.06,-0.553 4.178,0.669 4.731,2.734 0.551,2.061 -0.672,4.18 -2.734,4.731 -2.064,0.552 -4.18,-0.672 -4.734,-2.734 -0.551,-2.063 0.671,-4.18 2.737,-4.731"
           style="fill:#211d1d;fill-opacity:1;fill-rule:nonzero;stroke:none"
           id="path53694"
           inkscape:connector-curvature="0" /><path
           d="m 429.748,262.273 c 2.063,-0.551 4.18,0.67 4.733,2.734 0.551,2.061 -0.673,4.181 -2.735,4.732 -2.061,0.553 -4.181,-0.673 -4.732,-2.734 -0.552,-2.064 0.671,-4.18 2.734,-4.732"
           style="fill:#211d1d;fill-opacity:1;fill-rule:nonzero;stroke:none"
           id="path53696"
           inkscape:connector-curvature="0" /><path
           d="m 417.054,275.395 c 2.063,-0.551 4.18,0.669 4.731,2.734 0.552,2.06 -0.67,4.18 -2.734,4.732 -2.063,0.551 -4.18,-0.673 -4.733,-2.734 -0.55,-2.065 0.673,-4.181 2.736,-4.732"
           style="fill:#211d1d;fill-opacity:1;fill-rule:nonzero;stroke:none"
           id="path53698"
           inkscape:connector-curvature="0" /><path
           d="m 393.238,283.992 c 2.064,-0.553 4.182,0.667 4.732,2.733 0.554,2.062 -0.672,4.178 -2.735,4.732 -2.061,0.553 -4.179,-0.672 -4.732,-2.735 -0.552,-2.065 0.671,-4.18 2.735,-4.73"
           style="fill:#211d1d;fill-opacity:1;fill-rule:nonzero;stroke:none"
           id="path53700"
           inkscape:connector-curvature="0" /><path
           d="m 409.361,290.791 c 2.063,-0.553 4.181,0.67 4.733,2.732 0.552,2.063 -0.672,4.18 -2.735,4.733 -2.061,0.553 -4.179,-0.672 -4.732,-2.735 -0.552,-2.061 0.671,-4.179 2.734,-4.73"
           style="fill:#211d1d;fill-opacity:1;fill-rule:nonzero;stroke:none"
           id="path53702"
           inkscape:connector-curvature="0" /><path
           d="m 362.435,307.999 c 2.062,-0.553 4.18,0.668 4.733,2.732 0.551,2.062 -0.674,4.181 -2.734,4.733 -2.063,0.551 -4.182,-0.672 -4.736,-2.734 -0.551,-2.063 0.673,-4.18 2.737,-4.731"
           style="fill:#211d1d;fill-opacity:1;fill-rule:nonzero;stroke:none"
           id="path53704"
           inkscape:connector-curvature="0" /><path
           d="m 384.123,299.766 c 2.065,-0.552 4.182,0.67 4.732,2.734 0.551,2.062 -0.669,4.18 -2.734,4.732 -2.061,0.551 -4.18,-0.672 -4.731,-2.734 -0.551,-2.063 0.672,-4.18 2.733,-4.732"
           style="fill:#211d1d;fill-opacity:1;fill-rule:nonzero;stroke:none"
           id="path53706"
           inkscape:connector-curvature="0" /><path
           d="m 368.35,290.651 c 2.062,-0.553 4.179,0.67 4.732,2.734 0.551,2.062 -0.672,4.18 -2.734,4.731 -2.063,0.553 -4.18,-0.672 -4.733,-2.732 -0.552,-2.065 0.671,-4.18 2.735,-4.733"
           style="fill:#211d1d;fill-opacity:1;fill-rule:nonzero;stroke:none"
           id="path53708"
           inkscape:connector-curvature="0" /><path
           d="m 343.461,297.313 c 2.061,-0.552 4.182,0.669 4.733,2.733 0.55,2.061 -0.673,4.18 -2.735,4.732 -2.062,0.553 -4.183,-0.672 -4.734,-2.734 -0.55,-2.063 0.672,-4.18 2.736,-4.731"
           style="fill:#211d1d;fill-opacity:1;fill-rule:nonzero;stroke:none"
           id="path53710"
           inkscape:connector-curvature="0" /><path
           d="m 296.137,269.97 c 2.063,-0.55 4.179,0.67 4.731,2.734 0.554,2.061 -0.673,4.18 -2.734,4.733 -2.062,0.551 -4.18,-0.674 -4.733,-2.734 -0.552,-2.062 0.671,-4.182 2.736,-4.733"
           style="fill:#211d1d;fill-opacity:1;fill-rule:nonzero;stroke:none"
           id="path53712"
           inkscape:connector-curvature="0" /><path
           d="m 302.797,294.86 c 2.062,-0.553 4.182,0.668 4.732,2.733 0.552,2.061 -0.672,4.18 -2.734,4.732 -2.062,0.552 -4.179,-0.672 -4.732,-2.734 -0.553,-2.063 0.671,-4.18 2.734,-4.731"
           style="fill:#211d1d;fill-opacity:1;fill-rule:nonzero;stroke:none"
           id="path53714"
           inkscape:connector-curvature="0" /><path
           d="m 306.735,281.585 c 2.062,-0.552 4.179,0.67 4.73,2.734 0.553,2.064 -0.671,4.18 -2.733,4.732 -2.062,0.552 -4.181,-0.671 -4.733,-2.734 -0.552,-2.065 0.673,-4.179 2.736,-4.732"
           style="fill:#211d1d;fill-opacity:1;fill-rule:nonzero;stroke:none"
           id="path53716"
           inkscape:connector-curvature="0" /><path
           d="m 287.022,285.746 c 2.064,-0.554 4.181,0.668 4.735,2.733 0.55,2.062 -0.673,4.181 -2.738,4.732 -2.062,0.553 -4.182,-0.671 -4.733,-2.735 -0.551,-2.063 0.673,-4.178 2.736,-4.73"
           style="fill:#211d1d;fill-opacity:1;fill-rule:nonzero;stroke:none"
           id="path53718"
           inkscape:connector-curvature="0" /><path
           d="m 318.571,303.974 c 2.063,-0.552 4.182,0.67 4.734,2.733 0.549,2.063 -0.672,4.181 -2.736,4.732 -2.062,0.552 -4.18,-0.672 -4.732,-2.733 -0.552,-2.064 0.673,-4.181 2.734,-4.732"
           style="fill:#211d1d;fill-opacity:1;fill-rule:nonzero;stroke:none"
           id="path53720"
           inkscape:connector-curvature="0" /><path
           d="m 293.683,310.635 c 2.065,-0.552 4.181,0.668 4.731,2.734 0.555,2.061 -0.672,4.18 -2.734,4.732 -2.062,0.552 -4.18,-0.671 -4.731,-2.735 -0.553,-2.063 0.67,-4.179 2.734,-4.731"
           style="fill:#211d1d;fill-opacity:1;fill-rule:nonzero;stroke:none"
           id="path53722"
           inkscape:connector-curvature="0" /><path
           d="m 284.568,326.409 c 2.06,-0.552 4.182,0.669 4.733,2.734 0.553,2.06 -0.674,4.179 -2.734,4.731 -2.064,0.552 -4.182,-0.671 -4.733,-2.733 -0.554,-2.065 0.67,-4.181 2.734,-4.732"
           style="fill:#211d1d;fill-opacity:1;fill-rule:nonzero;stroke:none"
           id="path53724"
           inkscape:connector-curvature="0" /><path
           d="m 266.341,357.959 c 2.062,-0.551 4.18,0.669 4.732,2.733 0.55,2.062 -0.673,4.181 -2.734,4.733 -2.063,0.552 -4.181,-0.672 -4.732,-2.733 -0.553,-2.064 0.67,-4.182 2.734,-4.733"
           style="fill:#211d1d;fill-opacity:1;fill-rule:nonzero;stroke:none"
           id="path53726"
           inkscape:connector-curvature="0" /><path
           d="m 289.466,346.561 c 2.062,-0.552 4.18,0.67 4.732,2.734 0.551,2.061 -0.672,4.18 -2.734,4.731 -2.062,0.553 -4.18,-0.671 -4.733,-2.733 -0.552,-2.063 0.671,-4.18 2.735,-4.732"
           style="fill:#211d1d;fill-opacity:1;fill-rule:nonzero;stroke:none"
           id="path53728"
           inkscape:connector-curvature="0" /><path
           d="m 275.455,342.184 c 2.062,-0.552 4.18,0.67 4.731,2.734 0.551,2.061 -0.672,4.18 -2.733,4.732 -2.063,0.552 -4.181,-0.671 -4.733,-2.733 -0.553,-2.064 0.672,-4.181 2.735,-4.733"
           style="fill:#211d1d;fill-opacity:1;fill-rule:nonzero;stroke:none"
           id="path53730"
           inkscape:connector-curvature="0" /><path
           d="m 257.227,373.734 c 2.062,-0.552 4.181,0.669 4.731,2.733 0.552,2.062 -0.672,4.181 -2.733,4.732 -2.063,0.552 -4.18,-0.671 -4.732,-2.733 -0.554,-2.064 0.67,-4.18 2.734,-4.732"
           style="fill:#211d1d;fill-opacity:1;fill-rule:nonzero;stroke:none"
           id="path53732"
           inkscape:connector-curvature="0" /><path
           d="m 246.358,283.292 c 2.062,-0.553 4.18,0.67 4.733,2.733 0.551,2.063 -0.674,4.181 -2.735,4.733 -2.063,0.552 -4.181,-0.671 -4.732,-2.735 -0.553,-2.063 0.67,-4.178 2.734,-4.731"
           style="fill:#211d1d;fill-opacity:1;fill-rule:nonzero;stroke:none"
           id="path53734"
           inkscape:connector-curvature="0" /><path
           d="m 272.049,278.936 c 2.059,-0.554 4.18,0.668 4.732,2.734 0.55,2.061 -0.673,4.178 -2.734,4.73 -2.063,0.553 -4.181,-0.671 -4.732,-2.733 -0.555,-2.064 0.669,-4.179 2.734,-4.731"
           style="fill:#211d1d;fill-opacity:1;fill-rule:nonzero;stroke:none"
           id="path53736"
           inkscape:connector-curvature="0" /><path
           d="m 253.019,308.181 c 2.062,-0.552 4.179,0.669 4.733,2.735 0.551,2.062 -0.673,4.179 -2.735,4.731 -2.062,0.552 -4.181,-0.67 -4.732,-2.733 -0.553,-2.063 0.671,-4.181 2.734,-4.733"
           style="fill:#211d1d;fill-opacity:1;fill-rule:nonzero;stroke:none"
           id="path53738"
           inkscape:connector-curvature="0" /><path
           d="m 277.909,301.521 c 2.062,-0.553 4.178,0.669 4.729,2.732 0.555,2.062 -0.669,4.182 -2.731,4.733 -2.064,0.553 -4.182,-0.673 -4.735,-2.735 -0.551,-2.063 0.673,-4.179 2.737,-4.73"
           style="fill:#211d1d;fill-opacity:1;fill-rule:nonzero;stroke:none"
           id="path53740"
           inkscape:connector-curvature="0" /><path
           d="m 262.133,292.405 c 2.06,-0.551 4.18,0.671 4.733,2.735 0.55,2.061 -0.675,4.18 -2.734,4.732 -2.063,0.553 -4.181,-0.672 -4.733,-2.734 -0.553,-2.064 0.67,-4.18 2.734,-4.733"
           style="fill:#211d1d;fill-opacity:1;fill-rule:nonzero;stroke:none"
           id="path53742"
           inkscape:connector-curvature="0" /><path
           d="m 237.244,299.066 c 2.062,-0.551 4.18,0.671 4.734,2.734 0.55,2.062 -0.675,4.181 -2.736,4.732 -2.062,0.552 -4.179,-0.672 -4.732,-2.734 -0.553,-2.063 0.671,-4.18 2.734,-4.732"
           style="fill:#211d1d;fill-opacity:1;fill-rule:nonzero;stroke:none"
           id="path53744"
           inkscape:connector-curvature="0" /><path
           d="m 268.794,317.296 c 2.062,-0.552 4.178,0.669 4.732,2.733 0.553,2.061 -0.672,4.18 -2.734,4.733 -2.063,0.551 -4.181,-0.673 -4.733,-2.736 -0.552,-2.062 0.671,-4.179 2.735,-4.73"
           style="fill:#211d1d;fill-opacity:1;fill-rule:nonzero;stroke:none"
           id="path53746"
           inkscape:connector-curvature="0" /><path
           d="m 243.904,323.956 c 2.062,-0.551 4.182,0.669 4.734,2.734 0.551,2.061 -0.674,4.181 -2.734,4.732 -2.064,0.552 -4.18,-0.671 -4.734,-2.734 -0.551,-2.063 0.672,-4.18 2.734,-4.732"
           style="fill:#211d1d;fill-opacity:1;fill-rule:nonzero;stroke:none"
           id="path53748"
           inkscape:connector-curvature="0" /><path
           d="m 230.583,274.178 c 2.062,-0.553 4.181,0.671 4.733,2.734 0.551,2.062 -0.673,4.179 -2.734,4.731 -2.062,0.553 -4.18,-0.671 -4.732,-2.734 -0.553,-2.062 0.671,-4.18 2.733,-4.731"
           style="fill:#211d1d;fill-opacity:1;fill-rule:nonzero;stroke:none"
           id="path53750"
           inkscape:connector-curvature="0" /><path
           d="m 203.241,321.504 c 2.062,-0.552 4.18,0.668 4.733,2.733 0.551,2.061 -0.673,4.18 -2.735,4.731 -2.063,0.552 -4.18,-0.671 -4.732,-2.734 -0.553,-2.063 0.672,-4.18 2.734,-4.73"
           style="fill:#211d1d;fill-opacity:1;fill-rule:nonzero;stroke:none"
           id="path53752"
           inkscape:connector-curvature="0" /><path
           d="m 228.13,314.843 c 2.063,-0.552 4.181,0.669 4.733,2.733 0.55,2.061 -0.674,4.18 -2.736,4.732 -2.062,0.551 -4.179,-0.671 -4.731,-2.734 -0.553,-2.063 0.671,-4.18 2.734,-4.731"
           style="fill:#211d1d;fill-opacity:1;fill-rule:nonzero;stroke:none"
           id="path53754"
           inkscape:connector-curvature="0" /><path
           d="m 212.355,305.728 c 2.062,-0.551 4.18,0.668 4.733,2.734 0.552,2.062 -0.673,4.181 -2.734,4.732 -2.063,0.553 -4.182,-0.672 -4.732,-2.734 -0.554,-2.064 0.67,-4.18 2.733,-4.732"
           style="fill:#211d1d;fill-opacity:1;fill-rule:nonzero;stroke:none"
           id="path53756"
           inkscape:connector-curvature="0" /><path
           d="m 187.467,312.389 c 2.061,-0.552 4.18,0.668 4.731,2.735 0.552,2.06 -0.673,4.179 -2.734,4.731 -2.063,0.552 -4.18,-0.671 -4.732,-2.734 -0.552,-2.063 0.671,-4.18 2.735,-4.732"
           style="fill:#211d1d;fill-opacity:1;fill-rule:nonzero;stroke:none"
           id="path53758"
           inkscape:connector-curvature="0" /><path
           d="m 219.016,330.617 c 2.063,-0.552 4.181,0.67 4.733,2.734 0.55,2.061 -0.673,4.18 -2.734,4.731 -2.063,0.553 -4.181,-0.67 -4.734,-2.733 -0.552,-2.063 0.672,-4.181 2.735,-4.732"
           style="fill:#211d1d;fill-opacity:1;fill-rule:nonzero;stroke:none"
           id="path53760"
           inkscape:connector-curvature="0" /><path
           d="m 194.127,337.278 c 2.062,-0.552 4.18,0.669 4.734,2.734 0.551,2.062 -0.673,4.179 -2.736,4.731 -2.062,0.552 -4.18,-0.67 -4.732,-2.733 -0.553,-2.064 0.672,-4.18 2.734,-4.732"
           style="fill:#211d1d;fill-opacity:1;fill-rule:nonzero;stroke:none"
           id="path53762"
           inkscape:connector-curvature="0" /><path
           d="m 209.902,346.39 c 2.062,-0.55 4.18,0.67 4.733,2.735 0.551,2.062 -0.674,4.179 -2.735,4.731 -2.063,0.552 -4.181,-0.671 -4.732,-2.733 -0.553,-2.063 0.67,-4.181 2.734,-4.733"
           style="fill:#211d1d;fill-opacity:1;fill-rule:nonzero;stroke:none"
           id="path53764"
           inkscape:connector-curvature="0" /><path
           d="m 233.008,335.947 c 2.062,-0.551 4.181,0.669 4.733,2.735 0.551,2.06 -0.673,4.179 -2.735,4.731 -2.063,0.552 -4.179,-0.671 -4.732,-2.733 -0.552,-2.065 0.671,-4.181 2.734,-4.733"
           style="fill:#211d1d;fill-opacity:1;fill-rule:nonzero;stroke:none"
           id="path53766"
           inkscape:connector-curvature="0" /><path
           d="m 185.213,348.79 c 2.06,-0.551 4.179,0.669 4.731,2.733 0.552,2.061 -0.673,4.181 -2.735,4.733 -2.062,0.551 -4.18,-0.672 -4.731,-2.734 -0.553,-2.064 0.671,-4.181 2.735,-4.732"
           style="fill:#211d1d;fill-opacity:1;fill-rule:nonzero;stroke:none"
           id="path53768"
           inkscape:connector-curvature="0" /><path
           d="m 191.008,275.695 c 2.061,-0.551 4.18,0.668 4.733,2.733 0.551,2.062 -0.674,4.178 -2.735,4.732 -2.062,0.552 -4.18,-0.672 -4.732,-2.733 -0.553,-2.066 0.671,-4.181 2.734,-4.732"
           style="fill:#211d1d;fill-opacity:1;fill-rule:nonzero;stroke:none"
           id="path53770"
           inkscape:connector-curvature="0" /><path
           d="m 205.694,280.839 c 2.062,-0.552 4.181,0.67 4.732,2.733 0.553,2.062 -0.672,4.181 -2.734,4.733 -2.062,0.551 -4.178,-0.672 -4.731,-2.735 -0.554,-2.063 0.669,-4.178 2.733,-4.731"
           style="fill:#211d1d;fill-opacity:1;fill-rule:nonzero;stroke:none"
           id="path53772"
           inkscape:connector-curvature="0" /><path
           d="m 180.805,287.5 c 2.062,-0.553 4.181,0.668 4.733,2.733 0.551,2.062 -0.673,4.181 -2.734,4.733 -2.063,0.553 -4.181,-0.672 -4.733,-2.736 -0.552,-2.062 0.672,-4.178 2.734,-4.73"
           style="fill:#211d1d;fill-opacity:1;fill-rule:nonzero;stroke:none"
           id="path53774"
           inkscape:connector-curvature="0" /><path
           d="m 196.581,296.612 c 2.061,-0.551 4.179,0.67 4.732,2.734 0.551,2.063 -0.674,4.181 -2.735,4.732 -2.063,0.552 -4.181,-0.671 -4.732,-2.733 -0.552,-2.064 0.671,-4.18 2.735,-4.733"
           style="fill:#211d1d;fill-opacity:1;fill-rule:nonzero;stroke:none"
           id="path53776"
           inkscape:connector-curvature="0" /><path
           d="m 221.469,289.952 c 2.061,-0.553 4.18,0.67 4.733,2.733 0.551,2.062 -0.673,4.181 -2.735,4.732 -2.063,0.553 -4.18,-0.672 -4.732,-2.732 -0.552,-2.066 0.671,-4.182 2.734,-4.733"
           style="fill:#211d1d;fill-opacity:1;fill-rule:nonzero;stroke:none"
           id="path53778"
           inkscape:connector-curvature="0" /><path
           d="m 162.851,386.131 c 2.062,-0.551 4.18,0.669 4.733,2.733 0.55,2.062 -0.674,4.18 -2.734,4.733 -2.063,0.552 -4.181,-0.672 -4.733,-2.733 -0.552,-2.065 0.672,-4.182 2.734,-4.733"
           style="fill:#211d1d;fill-opacity:1;fill-rule:nonzero;stroke:none"
           id="path53780"
           inkscape:connector-curvature="0" /><path
           d="m 149.673,376.031 c 2.062,-0.552 4.181,0.67 4.734,2.734 0.551,2.061 -0.674,4.179 -2.734,4.731 -2.064,0.553 -4.182,-0.672 -4.734,-2.733 -0.552,-2.064 0.672,-4.18 2.734,-4.732"
           style="fill:#211d1d;fill-opacity:1;fill-rule:nonzero;stroke:none"
           id="path53782"
           inkscape:connector-curvature="0" /><path
           d="m 146.803,309.937 c 2.062,-0.552 4.18,0.668 4.732,2.733 0.551,2.06 -0.673,4.179 -2.733,4.731 -2.064,0.553 -4.182,-0.671 -4.734,-2.734 -0.551,-2.063 0.672,-4.18 2.735,-4.73"
           style="fill:#211d1d;fill-opacity:1;fill-rule:nonzero;stroke:none"
           id="path53784"
           inkscape:connector-curvature="0" /><path
           d="m 171.692,303.274 c 2.061,-0.551 4.181,0.67 4.732,2.735 0.552,2.062 -0.673,4.18 -2.735,4.731 -2.063,0.553 -4.18,-0.671 -4.731,-2.733 -0.553,-2.065 0.671,-4.18 2.734,-4.733"
           style="fill:#211d1d;fill-opacity:1;fill-rule:nonzero;stroke:none"
           id="path53786"
           inkscape:connector-curvature="0" /><path
           d="m 153.464,334.825 c 2.062,-0.552 4.18,0.668 4.732,2.734 0.552,2.06 -0.673,4.179 -2.734,4.732 -2.064,0.551 -4.181,-0.672 -4.732,-2.734 -0.553,-2.064 0.67,-4.181 2.734,-4.732"
           style="fill:#211d1d;fill-opacity:1;fill-rule:nonzero;stroke:none"
           id="path53788"
           inkscape:connector-curvature="0" /><path
           d="m 178.353,328.163 c 2.061,-0.55 4.18,0.67 4.732,2.734 0.552,2.061 -0.673,4.18 -2.734,4.733 -2.064,0.551 -4.181,-0.672 -4.732,-2.734 -0.553,-2.063 0.67,-4.181 2.734,-4.733"
           style="fill:#211d1d;fill-opacity:1;fill-rule:nonzero;stroke:none"
           id="path53790"
           inkscape:connector-curvature="0" /><path
           d="m 162.578,319.049 c 2.061,-0.551 4.18,0.67 4.732,2.736 0.552,2.06 -0.673,4.178 -2.734,4.73 -2.063,0.553 -4.181,-0.67 -4.732,-2.734 -0.552,-2.062 0.671,-4.179 2.734,-4.732"
           style="fill:#211d1d;fill-opacity:1;fill-rule:nonzero;stroke:none"
           id="path53792"
           inkscape:connector-curvature="0" /><path
           d="m 137.688,325.711 c 2.063,-0.552 4.181,0.669 4.734,2.733 0.55,2.061 -0.674,4.181 -2.735,4.732 -2.063,0.553 -4.181,-0.671 -4.733,-2.734 -0.552,-2.063 0.672,-4.179 2.734,-4.731"
           style="fill:#211d1d;fill-opacity:1;fill-rule:nonzero;stroke:none"
           id="path53794"
           inkscape:connector-curvature="0" /><path
           d="m 169.238,343.939 c 2.062,-0.551 4.181,0.669 4.733,2.733 0.551,2.061 -0.674,4.181 -2.735,4.732 -2.062,0.553 -4.18,-0.671 -4.732,-2.734 -0.552,-2.062 0.671,-4.18 2.734,-4.731"
           style="fill:#211d1d;fill-opacity:1;fill-rule:nonzero;stroke:none"
           id="path53796"
           inkscape:connector-curvature="0" /><path
           d="m 144.35,350.6 c 2.061,-0.552 4.18,0.669 4.731,2.733 0.553,2.063 -0.672,4.18 -2.733,4.732 -2.064,0.552 -4.181,-0.671 -4.732,-2.733 -0.553,-2.063 0.671,-4.182 2.734,-4.732"
           style="fill:#211d1d;fill-opacity:1;fill-rule:nonzero;stroke:none"
           id="path53798"
           inkscape:connector-curvature="0" /><path
           d="m 135.235,366.373 c 2.062,-0.552 4.181,0.67 4.733,2.733 0.552,2.062 -0.674,4.181 -2.735,4.733 -2.063,0.552 -4.18,-0.671 -4.732,-2.734 -0.552,-2.063 0.671,-4.18 2.734,-4.732"
           style="fill:#211d1d;fill-opacity:1;fill-rule:nonzero;stroke:none"
           id="path53800"
           inkscape:connector-curvature="0" /><path
           d="m 155.917,294.16 c 2.062,-0.552 4.181,0.67 4.732,2.734 0.552,2.061 -0.673,4.179 -2.733,4.731 -2.064,0.554 -4.182,-0.67 -4.733,-2.732 -0.552,-2.065 0.671,-4.182 2.734,-4.733"
           style="fill:#211d1d;fill-opacity:1;fill-rule:nonzero;stroke:none"
           id="path53802"
           inkscape:connector-curvature="0" /><path
           d="m 131.874,305.185 c 2.061,-0.551 4.18,0.67 4.732,2.734 0.552,2.064 -0.672,4.183 -2.734,4.733 -2.062,0.553 -4.18,-0.673 -4.732,-2.733 -0.553,-2.064 0.672,-4.182 2.734,-4.734"
           style="fill:#211d1d;fill-opacity:1;fill-rule:nonzero;stroke:none"
           id="path53804"
           inkscape:connector-curvature="0" /><path
           d="m 121.914,316.596 c 2.062,-0.55 4.181,0.67 4.732,2.735 0.552,2.061 -0.673,4.18 -2.734,4.732 -2.063,0.55 -4.18,-0.672 -4.732,-2.735 -0.553,-2.063 0.672,-4.18 2.734,-4.732"
           style="fill:#211d1d;fill-opacity:1;fill-rule:nonzero;stroke:none"
           id="path53806"
           inkscape:connector-curvature="0" /><path
           d="m 103.686,348.146 c 2.062,-0.551 4.18,0.669 4.732,2.733 0.552,2.062 -0.673,4.181 -2.733,4.733 -2.064,0.552 -4.182,-0.671 -4.734,-2.733 -0.551,-2.064 0.672,-4.181 2.735,-4.733"
           style="fill:#211d1d;fill-opacity:1;fill-rule:nonzero;stroke:none"
           id="path53808"
           inkscape:connector-curvature="0" /><path
           d="m 128.575,341.485 c 2.061,-0.551 4.18,0.669 4.732,2.734 0.552,2.061 -0.674,4.18 -2.734,4.731 -2.063,0.553 -4.181,-0.67 -4.732,-2.733 -0.553,-2.063 0.671,-4.18 2.734,-4.732"
           style="fill:#211d1d;fill-opacity:1;fill-rule:nonzero;stroke:none"
           id="path53810"
           inkscape:connector-curvature="0" /><path
           d="m 112.8,332.371 c 2.061,-0.551 4.18,0.67 4.732,2.733 0.551,2.063 -0.673,4.181 -2.734,4.733 -2.064,0.552 -4.18,-0.671 -4.732,-2.734 -0.553,-2.063 0.672,-4.18 2.734,-4.732"
           style="fill:#211d1d;fill-opacity:1;fill-rule:nonzero;stroke:none"
           id="path53812"
           inkscape:connector-curvature="0" /><path
           d="m 87.911,339.032 c 2.062,-0.551 4.18,0.67 4.733,2.734 0.551,2.061 -0.674,4.18 -2.734,4.732 -2.063,0.552 -4.181,-0.671 -4.733,-2.734 -0.552,-2.063 0.671,-4.181 2.734,-4.732"
           style="fill:#211d1d;fill-opacity:1;fill-rule:nonzero;stroke:none"
           id="path53814"
           inkscape:connector-curvature="0" /><path
           d="m 119.461,357.26 c 2.061,-0.551 4.18,0.67 4.732,2.734 0.552,2.062 -0.674,4.181 -2.735,4.732 -2.063,0.551 -4.18,-0.671 -4.731,-2.734 -0.553,-2.063 0.67,-4.18 2.734,-4.732"
           style="fill:#211d1d;fill-opacity:1;fill-rule:nonzero;stroke:none"
           id="path53816"
           inkscape:connector-curvature="0" /><path
           d="m 94.571,363.921 c 2.063,-0.552 4.181,0.669 4.734,2.734 0.551,2.061 -0.674,4.18 -2.734,4.731 -2.064,0.553 -4.182,-0.671 -4.734,-2.733 -0.551,-2.064 0.672,-4.18 2.734,-4.732"
           style="fill:#211d1d;fill-opacity:1;fill-rule:nonzero;stroke:none"
           id="path53818"
           inkscape:connector-curvature="0" /><path
           d="m 106.139,307.482 c 2.063,-0.551 4.18,0.671 4.733,2.734 0.551,2.063 -0.674,4.181 -2.734,4.732 -2.064,0.552 -4.181,-0.671 -4.733,-2.733 -0.553,-2.064 0.671,-4.18 2.734,-4.733"
           style="fill:#211d1d;fill-opacity:1;fill-rule:nonzero;stroke:none"
           id="path53820"
           inkscape:connector-curvature="0" /><path
           d="m 74.57,390.916 c 2.061,-0.551 4.18,0.67 4.732,2.733 0.552,2.062 -0.674,4.181 -2.735,4.733 -2.063,0.552 -4.18,-0.672 -4.732,-2.733 -0.553,-2.065 0.672,-4.181 2.735,-4.733"
           style="fill:#211d1d;fill-opacity:1;fill-rule:nonzero;stroke:none"
           id="path53822"
           inkscape:connector-curvature="0" /><path
           d="m 47.248,336.579 c 2.061,-0.551 4.179,0.67 4.732,2.734 0.551,2.061 -0.673,4.18 -2.735,4.732 -2.062,0.552 -4.18,-0.672 -4.731,-2.734 -0.553,-2.064 0.67,-4.18 2.734,-4.732"
           style="fill:#211d1d;fill-opacity:1;fill-rule:nonzero;stroke:none"
           id="path53824"
           inkscape:connector-curvature="0" /><path
           d="m 72.137,329.917 c 2.061,-0.55 4.179,0.67 4.732,2.735 0.551,2.061 -0.674,4.18 -2.734,4.732 -2.064,0.551 -4.181,-0.671 -4.733,-2.734 -0.552,-2.064 0.671,-4.18 2.735,-4.733"
           style="fill:#211d1d;fill-opacity:1;fill-rule:nonzero;stroke:none"
           id="path53826"
           inkscape:connector-curvature="0" /><path
           d="m 53.908,361.467 c 2.062,-0.55 4.18,0.67 4.733,2.734 0.552,2.062 -0.674,4.18 -2.734,4.733 -2.063,0.551 -4.181,-0.672 -4.733,-2.734 -0.553,-2.063 0.671,-4.181 2.734,-4.733"
           style="fill:#211d1d;fill-opacity:1;fill-rule:nonzero;stroke:none"
           id="path53828"
           inkscape:connector-curvature="0" /><path
           d="m 78.797,354.807 c 2.062,-0.552 4.181,0.67 4.733,2.735 0.551,2.06 -0.674,4.179 -2.734,4.73 -2.063,0.553 -4.181,-0.67 -4.733,-2.733 -0.553,-2.064 0.67,-4.18 2.734,-4.732"
           style="fill:#211d1d;fill-opacity:1;fill-rule:nonzero;stroke:none"
           id="path53830"
           inkscape:connector-curvature="0" /><path
           d="m 63.022,345.692 c 2.062,-0.55 4.18,0.67 4.733,2.735 0.552,2.06 -0.673,4.179 -2.735,4.731 -2.062,0.552 -4.181,-0.671 -4.732,-2.733 -0.553,-2.063 0.671,-4.18 2.734,-4.733"
           style="fill:#211d1d;fill-opacity:1;fill-rule:nonzero;stroke:none"
           id="path53832"
           inkscape:connector-curvature="0" /><path
           d="m 38.134,352.354 c 2.06,-0.552 4.179,0.668 4.732,2.734 0.551,2.061 -0.674,4.179 -2.734,4.732 -2.063,0.552 -4.181,-0.672 -4.733,-2.734 -0.552,-2.063 0.671,-4.18 2.735,-4.732"
           style="fill:#211d1d;fill-opacity:1;fill-rule:nonzero;stroke:none"
           id="path53834"
           inkscape:connector-curvature="0" /><path
           d="m 69.683,370.582 c 2.062,-0.552 4.181,0.668 4.733,2.733 0.55,2.061 -0.674,4.181 -2.734,4.732 -2.063,0.553 -4.181,-0.67 -4.733,-2.733 -0.553,-2.064 0.671,-4.18 2.734,-4.732"
           style="fill:#211d1d;fill-opacity:1;fill-rule:nonzero;stroke:none"
           id="path53836"
           inkscape:connector-curvature="0" /><path
           d="m 44.794,377.243 c 2.062,-0.552 4.18,0.669 4.733,2.733 0.552,2.062 -0.673,4.181 -2.735,4.732 -2.062,0.553 -4.18,-0.671 -4.732,-2.733 -0.552,-2.064 0.67,-4.181 2.734,-4.732"
           style="fill:#211d1d;fill-opacity:1;fill-rule:nonzero;stroke:none"
           id="path53838"
           inkscape:connector-curvature="0" /><path
           d="m 60.568,386.355 c 2.062,-0.551 4.181,0.67 4.733,2.733 0.552,2.063 -0.673,4.181 -2.733,4.733 -2.064,0.552 -4.182,-0.671 -4.734,-2.733 -0.552,-2.064 0.672,-4.181 2.734,-4.733"
           style="fill:#211d1d;fill-opacity:1;fill-rule:nonzero;stroke:none"
           id="path53840"
           inkscape:connector-curvature="0" /><path
           d="m 85.458,379.694 c 2.062,-0.551 4.18,0.67 4.732,2.734 0.551,2.062 -0.672,4.18 -2.734,4.732 -2.063,0.552 -4.181,-0.671 -4.733,-2.733 -0.552,-2.064 0.672,-4.181 2.735,-4.733"
           style="fill:#211d1d;fill-opacity:1;fill-rule:nonzero;stroke:none"
           id="path53842"
           inkscape:connector-curvature="0" /><path
           d="m 29.02,368.129 c 2.061,-0.552 4.179,0.669 4.732,2.733 0.552,2.061 -0.673,4.18 -2.735,4.732 -2.062,0.552 -4.18,-0.671 -4.731,-2.733 -0.554,-2.065 0.67,-4.181 2.734,-4.732"
           style="fill:#211d1d;fill-opacity:1;fill-rule:nonzero;stroke:none"
           id="path53844"
           inkscape:connector-curvature="0" /><path
           d="m 14.839,363.589 c 2.062,-0.551 4.181,0.669 4.732,2.733 0.553,2.062 -0.673,4.18 -2.734,4.732 -2.064,0.552 -4.18,-0.671 -4.732,-2.733 -0.553,-2.065 0.672,-4.18 2.734,-4.732"
           style="fill:#211d1d;fill-opacity:1;fill-rule:nonzero;stroke:none"
           id="path53846"
           inkscape:connector-curvature="0" /><path
           d="m 20.908,382.149 c 2.063,-0.55 4.18,0.67 4.733,2.735 0.551,2.061 -0.674,4.179 -2.734,4.732 -2.064,0.551 -4.181,-0.672 -4.733,-2.734 -0.552,-2.064 0.671,-4.181 2.734,-4.733"
           style="fill:#211d1d;fill-opacity:1;fill-rule:nonzero;stroke:none"
           id="path53848"
           inkscape:connector-curvature="0" /><path
           d="m 270.399,239.973 c 2.064,-0.553 4.18,0.671 4.733,2.733 0.551,2.062 -0.673,4.181 -2.735,4.732 -2.061,0.552 -4.18,-0.672 -4.732,-2.734 -0.553,-2.062 0.672,-4.181 2.734,-4.731"
           style="fill:#211d1d;fill-opacity:1;fill-rule:nonzero;stroke:none"
           id="path53850"
           inkscape:connector-curvature="0" /><path
           d="m 280.362,260.855 c 2.061,-0.55 4.179,0.67 4.732,2.735 0.552,2.06 -0.672,4.181 -2.734,4.732 -2.063,0.551 -4.182,-0.672 -4.735,-2.733 -0.551,-2.063 0.674,-4.181 2.737,-4.734"
           style="fill:#211d1d;fill-opacity:1;fill-rule:nonzero;stroke:none"
           id="path53852"
           inkscape:connector-curvature="0" /><path
           d="m 257.925,226.852 c 2.061,-0.551 4.181,0.67 4.735,2.735 0.55,2.062 -0.677,4.182 -2.738,4.733 -2.062,0.551 -4.178,-0.672 -4.731,-2.735 -0.553,-2.064 0.671,-4.179 2.734,-4.733"
           style="fill:#211d1d;fill-opacity:1;fill-rule:nonzero;stroke:none"
           id="path53854"
           inkscape:connector-curvature="0" /><path
           d="m 308.826,316.695 c 2.064,-0.552 4.181,0.669 4.735,2.734 0.55,2.061 -0.674,4.178 -2.739,4.732 -2.062,0.551 -4.179,-0.672 -4.731,-2.734 -0.55,-2.063 0.671,-4.181 2.735,-4.732"
           style="fill:#211d1d;fill-opacity:1;fill-rule:nonzero;stroke:none"
           id="path53856"
           inkscape:connector-curvature="0" /><path
           d="m 334.346,313.087 c 2.063,-0.55 4.179,0.67 4.733,2.735 0.551,2.061 -0.673,4.179 -2.734,4.732 -2.062,0.551 -4.181,-0.672 -4.734,-2.735 -0.55,-2.063 0.671,-4.18 2.735,-4.732"
           style="fill:#211d1d;fill-opacity:1;fill-rule:nonzero;stroke:none"
           id="path53858"
           inkscape:connector-curvature="0" /><path
           d="m 299.488,333.362 c 2.062,-0.55 4.18,0.67 4.733,2.734 0.551,2.062 -0.673,4.181 -2.737,4.733 -2.06,0.551 -4.18,-0.672 -4.733,-2.735 -0.55,-2.063 0.674,-4.18 2.737,-4.732"
           style="fill:#211d1d;fill-opacity:1;fill-rule:nonzero;stroke:none"
           id="path53860"
           inkscape:connector-curvature="0" /><path
           d="m 43.479,347.941 c -1.095,-1.349 -4.163,-0.676 -6.85,1.506 -2.686,2.183 -3.974,5.046 -2.878,6.396 1.096,1.35 4.163,0.676 6.85,-1.507 2.687,-2.182 3.975,-5.046 2.878,-6.395"
           style="fill:#ffffff;fill-opacity:1;fill-rule:nonzero;stroke:none"
           id="path53862"
           inkscape:connector-curvature="0" /><path
           d="m 58.469,390.744 c 0.064,-1.738 -2.687,-3.251 -6.146,-3.378 -3.458,-0.128 -6.314,1.177 -6.377,2.914 -0.066,1.737 2.686,3.25 6.145,3.38 3.458,0.127 6.314,-1.177 6.378,-2.916"
           style="fill:#ffffff;fill-opacity:1;fill-rule:nonzero;stroke:none"
           id="path53864"
           inkscape:connector-curvature="0" /></g></g></g></svg>