<?xml version="1.0" encoding="UTF-8" standalone="no"?>
<svg
   xmlns:dc="http://purl.org/dc/elements/1.1/"
   xmlns:cc="http://creativecommons.org/ns#"
   xmlns:rdf="http://www.w3.org/1999/02/22-rdf-syntax-ns#"
   xmlns:svg="http://www.w3.org/2000/svg"
   xmlns="http://www.w3.org/2000/svg"
   xmlns:sodipodi="http://sodipodi.sourceforge.net/DTD/sodipodi-0.dtd"
   xmlns:inkscape="http://www.inkscape.org/namespaces/inkscape"
   version="1.1"
   x="0"
   y="0"
   width="1200"
   height="1111"
   viewBox="0 0 1200 1111"
   id="svg4840"
   inkscape:version="0.91 r13725"
   sodipodi:docname="teleconferenceman.svg">
  <metadata
     id="metadata4989">
    <rdf:RDF>
      <cc:Work
         rdf:about="">
        <dc:format>image/svg+xml</dc:format>
        <dc:type
           rdf:resource="http://purl.org/dc/dcmitype/StillImage" />
        <dc:title></dc:title>
        <dc:creator>
          <cc:Agent>
            <dc:title>j4p4n</dc:title>
          </cc:Agent>
        </dc:creator>
        <cc:license
           rdf:resource="http://creativecommons.org/publicdomain/zero/1.0/" />
      </cc:Work>
      <cc:License
         rdf:about="http://creativecommons.org/publicdomain/zero/1.0/">
        <cc:permits
           rdf:resource="http://creativecommons.org/ns#Reproduction" />
        <cc:permits
           rdf:resource="http://creativecommons.org/ns#Distribution" />
        <cc:permits
           rdf:resource="http://creativecommons.org/ns#DerivativeWorks" />
      </cc:License>
    </rdf:RDF>
  </metadata>
  <defs
     id="defs4987" />
  <sodipodi:namedview
     pagecolor="#ffffff"
     bordercolor="#666666"
     borderopacity="1"
     objecttolerance="10"
     gridtolerance="10"
     guidetolerance="10"
     inkscape:pageopacity="0"
     inkscape:pageshadow="2"
     inkscape:window-width="1916"
     inkscape:window-height="1035"
     id="namedview4985"
     showgrid="false"
     inkscape:zoom="0.38183766"
     inkscape:cx="404.18848"
     inkscape:cy="785.34031"
     inkscape:window-x="4"
     inkscape:window-y="1"
     inkscape:window-maximized="1"
     inkscape:current-layer="g10410"
     fit-margin-top="0"
     fit-margin-left="0"
     fit-margin-right="0"
     fit-margin-bottom="0" />
  <g
     id="g4991"
     transform="translate(98.834527,135.50474)">
    <g
       id="Layer_4" />
    <g
       id="Layer_4-4"
       transform="translate(-1630.3811,24.811262)" />
    <g
       id="g10410"
       transform="translate(12.659686,-8.1884817)">
      <g
         id="g10544">
        <path
           d="m 198.46542,539.18769 c -47.538,18.616 -89.252,49.82612 -134.068,73.41212 -26.732,14.07 -77.57632,27.99176 -89.23632,59.08776 -4.338,11.566 -6.4863,20.28158 -6.4863,32.35758 0,6.782 3.2183,51.3797 7.1283,56.5937 1.89,2.522 31.77232,4.42788 34.71032,4.84588 12.458,1.78 28.6683,0.9997 41.1263,2.4957 13.422,1.61 26.984,2.236 40.412,3.848 47.628,5.716 97.33818,12.15538 144.75818,19.74338 26.738,4.278 100.40182,29.84898 125.94382,26.65698 5.758,-0.72 43.6977,-7.8432 55.45012,-12.54332 12.48204,-4.99192 25.55218,-15.41412 37.63418,-21.45412 24.988,-12.494 50.07,-30.9865 75.052,-43.4785 10.686,-5.342 22.17012,-13.00806 33.00012,-18.10406 4.698,-2.21 20.3388,-4.25206 24.9468,-6.55606 7.1,-3.55 14.62406,-8.216 21.95206,-11.548 6.092,-2.768 -3.50528,-8.4823 2.13872,-11.6163 4.47,-2.484 46.398,-25.868 46.826,-27.584 0.444,-1.772 -3.188,-2.968 -3.848,-3.85 -2.464,-3.284 -4.148,-9.538 -5.132,-13.47 -4.398,-17.59 -5.466,-35.224 -6.414,-53.242 -1.018,-19.32 -2.996,-48.53 -0.642,-67.354 0.75,-5.996 8.83,-33.18 6.414,-37.206 -1.59,-2.65 -25.954,-13.488 -30.148,-15.396 -16.102,-7.318 -30.292,-18.686 -45.544,-27.582 -5.628,-3.284 -11.728,-5.54 -17.32,-8.982 -15.99,-9.84 -29.362,-23.464 -44.262,-34.638 -1.702,-1.276 -3.518,0.164 -5.132,-0.642 -5.766,-2.884 -10.426,-10.626 -16.678,-12.188 -8.22,-2.056 -32.518,10.966 -41.054,14.112 -26.036,9.592 -52.168,19.786 -78.902,27.584 -30.638,8.936 -94.144,28.072 -116.748,50.676 -4.68,4.68 -4.994,9.07 -6.414,14.754 -1.052,4.206 -4.498,8.354 -6.416,12.188"
           id="path4846"
           inkscape:connector-curvature="0"
           style="fill:#974b45"
           sodipodi:nodetypes="cccsccccccscccsccccccccccccccccscc" />
        <path
           d="m 330.29172,795.29643 c -9.34626,-12.39386 -4.746,40.096 -4.746,60.638 0,32.414 1.014,64.612 6.328,96.496 0.644,3.864 13.492,5.65 16.872,6.326 6.786,1.358 37.484,10.26 43.238,7.384 4.996,-2.498 10.142,-6.938 14.764,-10.02 3.524,-2.348 8.886,-3.46 11.602,-6.854 4.164,-5.208 -4.084,-36.5 -5.274,-43.238 -2.026,-11.48 -2.066,-23.272 -3.164,-34.802 -1.908,-20.046 -4.218,-39.892 -4.218,-60.112 0,-1.916 -1.6,-31.472 -2.636,-32.164 -2.614,-1.744 -8.89,1.908 -11.074,2.636 -19.116,6.372 -57.25148,-1.70686 -76.81948,2.20514"
           id="path4848"
           inkscape:connector-curvature="0"
           style="fill:#974b45"
           sodipodi:nodetypes="cssccccccscsc" />
        <path
           d="m 3.56572,738.41443 c -1.88,24.532 -9.17642,49.108 -10.00042,73.79 -0.96,28.8 4.20042,57.876 4.20042,86.68 0,3.872 -0.262,41.088 1.61,42.212 4.142,2.484 15.274,0.41 19.978,0.644 36.376,1.82 24.92,6.982 50.59,-18.688 4.38,-4.378 14.71,-11.582 16.756,-17.724 2.19,-6.568 -3.956,-18.29 -5.156,-24.488 -2.91,-15.046 -4.168,-30.79 -4.832,-46.08 -1.106,-25.438 -1.378,-50.926 -2.256,-76.368 -0.16,-4.638 2.424,-16.904 0,-20.944 -1.376,-2.292 -12.734,0.186 -14.5,0.322 -19.406,1.492 -39.216,3.222 -58.646,3.222"
           id="path4850"
           inkscape:connector-curvature="0"
           style="fill:#974b45"
           sodipodi:nodetypes="ccscccccccccc" />
        <path
           d="m 500.21172,472.06443 c -36.264,5.688 -64.188,36.364 -93.99,55.188 -28.47,17.98 -59.878,37.324 -84.792,60.072 -14.152,12.922 -34.542,35.046 -31.042,56.048 5.25212,45.62384 47.48612,49.85988 67.39012,56.49388 18.034,6.01 72.84388,5.58012 91.27188,1.28012 10.642,-2.482 21.676,-6.456 30.756,-12.646 15.678,-10.69 28.368,-25.222 42.826,-37.366 21.388,-17.968 75.152,-57.566 83.93,-85.654 11.672,-37.35 -31.124,-61.8 -58.348,-75.882 -12.246,-6.334 -39.168,-21.808 -53.176,-20.408 -4.358,0.436 -8.77,5.234 -12.934,6.898"
           id="path4852"
           inkscape:connector-curvature="0"
           style="fill:#cecece;fill-opacity:1"
           sodipodi:nodetypes="cccccccccccc" />
        <path
           d="m 637.27972,696.69843 c -22.072,15.3 -48.024,26.654 -73.552,35.588 -7.176,2.512 -22.15,5.886 -23.132,15.72 -1.654,16.532 7.646,30.394 13.938,45.08 11.032,25.738 22.826,51.588 39.148,74.44 3.418,4.786 8.798,19.98842 15.72,18.83442 4.344,-0.724 33.072,-22.27242 33.512,-25.35842 0.742,-5.196 -1.45358,-17.6683 -3.40758,-22.3083 -4.834,-11.478 -13.45042,-20.4697 -15.86842,-32.5597 -0.818,-4.084 -5.404,-13.576 -4.746,-14.236 1.184,-1.184 43.938,-2.74 48.638,-3.262 24.106,-2.678 55.68,-8.128 78.89,-14.236 4.978,-1.31 26.0665,-0.1798 27.0325,-6.94576 2.538,-17.766 2.04326,-36.75384 -0.40194,-57.22018 -1.54484,-12.93024 0.35994,-10.10618 -0.19,-10.65618 -2.016,-2.016 -49.1105,0.97412 -54.0225,0.97412 -20.864,0 -41.27,-3.21 -61.984,-4.152 -6.124,-0.278 -16.66,-4.332 -22.54,-2.372 -5.102,1.702 -18.144,13.102 -22.244,17.202"
           id="path4854"
           inkscape:connector-curvature="0"
           style="fill:#7a7d8f;fill-opacity:1"
           sodipodi:nodetypes="cccccccccccscsssccc" />
        <path
           d="m 581.81972,758.68243 c -14.348,22.094 -30.416,44.882 -40.632,69.4 -5.7,13.68 -9.678,28.254 -16.312,41.52 -0.582,1.164 -2.662,5.498 -1.778,6.822 2.554,3.83 30.03576,16.9425 35.71576,17.8385 5.246,0.828 28.20024,6.23006 28.34424,6.12206 1.692,-1.268 7.404,-29.80856 8.304,-32.56256 6.22,-19.046 12.502,-37.988 18.092,-57.238 2.938,-10.124 7.624,-18.706 13.048,-27.582 0.382,-0.626 5.278,-6.234 4.746,-7.118 -4.368,-7.282 -41.576,-12.372 -51.604,-18.388"
           id="path4856"
           inkscape:connector-curvature="0"
           style="fill:#7a7d8f;fill-opacity:1"
           sodipodi:nodetypes="csccccccccc" />
        <path
           d="m 576.50372,901.35843 c -13.96,1.342 -34.228,-13.14 -46.712,-7.884 -4.718,1.988 -48.00442,17.188 -44.61042,25.108 3.152,7.354 45.70042,14.94 53.07642,16.642 5.786,1.336 29.634,10.364 34.742,8.174 2.554,-1.094 3.504,-40.332 3.504,-47.004"
           id="path4858"
           inkscape:connector-curvature="0"
           style="fill:#595959"
           sodipodi:nodetypes="cccccc" />
        <path
           d="m 644.82172,863.11243 c -5.264,1.562 -9.138,5.572 -13.138,9.05 -3.112,2.706 -8.448,5.226 -10.802,8.76 -1.834,2.748 -0.092,9.932 -0.292,13.136 -0.4,6.39 -2.438,13.022 -3.796,19.27 -0.234,1.076 -2.862,11.314 -2.044,11.97 2.36,1.888 8.74,-2.62 10.802,-3.504 6.222,-2.666 50.06,-26.742 47.88,-33.282 -1.068,-3.204 -20.664,-21.54 -24.816,-25.692"
           id="path4860"
           inkscape:connector-curvature="0"
           style="fill:#595959" />
        <path
           d="m 881.93372,633.59643 c 0.304,4.126 -11.5528,8.046 -13.5228,11.658 -11.558,56.44384 -12.9632,43.036 -20.2012,66.202 -1.968,6.296 -2.418,12.866 -4.164,19.152 -4.84,17.426 -9.51,35.11 -14.99,52.46 -1.094,3.468 -8.068,29.336 -11.24,30.394 -7.18,2.392 -31.436,0 -39.554,0 -14.68,0 -29.466,0.524 -44.134,0 -21.734,-0.776 -43.088,-4.164 -64.952,-4.164 -6.8,0 -20.428,-2.692 -26.646,0.416 -1.454,0.728 -1.074,5.256 -1.25,6.662 -0.824,6.598 -2.208,20.884 1.25,26.648 2.28,3.8 9.842,2.914 13.324,2.914 22.344,0 44.688,0 67.032,0 3.712,0 16.278,-2.156 19.152,0 2.9,2.174 2.67,15.54 2.916,18.736 1.262,16.418 5.106,48.916 9.16,64.118 0.674,2.528 4.804,15.218 2.914,17.488 -2.246,2.694 -20.508,10.93 -30.394,20.818 -0.448,0.448 -5.26,5.3 -4.996,5.828 0.236,0.474 7.81,0 8.326,0 17.954,0 35.416,-0.89 53.294,-2.082 6.402,-0.426 12.74,-0.416 19.152,-0.416 2.36,0 7.824,2.238 7.078,0 -3.976,-11.93 -30.11314,-30.778 -32.74114,-39.97 -0.634,-2.224 -3.59086,-35.54 -3.06486,-40.802 0.432,-4.324 0.72,-43.39 1.666,-44.968 1.74,-2.902 18.246,-0.832 21.234,-0.832 33.386,0 68.07412,9.50662 101.49212,9.50662 1.87,0 3.66188,-7.06062 4.67788,-9.09062 5.874,-11.748 2.498,-69.676 2.498,-85.352 0,-30.344 3.326,-60.914 5.412,-91.182 0.174,-2.52 -5.22856,-26.61738 -6.64056,-28.38138 -1.444,-1.808 -20.58144,-8.67462 -23.75344,-8.67462"
           id="path4862"
           inkscape:connector-curvature="0"
           style="fill:#ff8080"
           sodipodi:nodetypes="ccccccscscccssccccccscsccccsscsccc" />
        <path
           d="m 495.23972,474.20843 c -28.512,4.236 -69.398,31.054 -93.012,48.11 -24.984,18.042 -48.83,37.346 -72.166,57.09 -14.558,12.32 -32.01,24.552 -39.77,42.658 -5.162,12.044 0.182,50.884 9.942,58.692 5.792,4.634 16.71,5.084 23.734,6.736 9.186,2.162 17.818,6.258 26.942,8.66 10.39,2.734 21.092,4.504 31.432,7.376 8.08,2.246 47.03,16.15 54.524,11.868 5.878,-3.36 10.994,-8.718 16.678,-12.508 9.298,-6.2 19.358,-11.21 28.546,-17.64 15.878,-11.116 30.206,-24.296 46.184,-35.282 6.04,-4.152 27.9,-25.014 32.714,-26.94"
           id="path4937"
           inkscape:connector-curvature="0"
           style="fill:#cecece;fill-opacity:1;stroke:#000000;stroke-width:13;stroke-linecap:round;stroke-linejoin:round" />
        <path
           d="m 299.52203,166.50791 c -14.62366,-0.37031 -28.03665,1.9021 -38.90529,7.62329 -3.16527,1.66624 -6.08192,3.32026 -8.33142,5.74397 -4.31596,4.65022 -8.99317,13.06996 -9.2876,19.4244 -0.41738,8.98958 4.33286,23.86155 10.9179,32.79167 4.80936,6.52226 16.12647,16.51376 24.0884,20.99088 2.40793,1.35407 4.35058,3.14187 6.88661,4.38594 7.62269,3.73913 15.85781,5.98611 24.00182,7.31045 3.2173,0.52293 6.55636,1.6527 9.76827,1.98403 2.02852,0.20944 4.08291,0.5226 6.13843,0.83544 3.1073,0.47338 6.35753,0.31349 9.3628,0.31349 8.18846,0 16.14744,-0.007 23.29852,-2.19314 1.31745,-0.40268 2.52152,-0.98375 3.86924,-1.3577 1.31325,-0.36436 2.56923,-0.67191 3.80557,-1.1486 11.77953,-4.54186 24.52828,-18.93285 25.33906,-29.9722 0.43021,-5.85563 -1.17576,-12.46642 -3.61946,-18.58896 -2.027,-5.079 -11.53136,-16.58215 -16.68234,-20.67739 -4.74698,-3.77382 -22.76309,-13.5255 -28.7742,-16.08267 -3.77971,-1.60777 -7.74577,-2.70087 -11.61317,-4.07278 -8.67202,-3.07581 -24.43555,-7.38972 -33.07503,-7.38972"
           id="path4897-1"
           inkscape:connector-curvature="0"
           style="fill-opacity:0;stroke:#000000;stroke-width:5.30000019;stroke-linecap:round;stroke-linejoin:round;stroke-miterlimit:4;stroke-dasharray:none;stroke-opacity:1"
           sodipodi:nodetypes="ccscccccccscsccccccc" />
        <path
           d="m 487.17172,-39.77357 c -25.49,19.974 -49.452,43.204 -66.086,70.664 -3.644,6.014 -8.468,11.388 -11.882,17.514 -29.79,53.486 -28.95794,117.11612 -19.89594,175.57212 8.384,54.076 33.13674,104.12224 61.8483,144.41594 30.24426,42.44464 78.64558,93.44984 127.21964,97.38656 21.928,9.362 44.262,11.08138 67.452,17.19938 45.594,12.03 101.178,19.998 148.456,16.478 14.874,-1.108 30.026,-5.166 44.514,-8.484 11.468,-2.628 23.312,-4.726 34.354,-8.786 29.75,-10.936 55.954,-27.826 80.348,-47.192 16.178,-12.84 31.242,-25.95 44.304,-41.914 42.18798,-51.566 65.62848,-104.566 71.07648,-169.246 1.522,-18.054 -3.1505,-37.164 -4.6425,-55.274 -1.208,-14.638 -6.248,-28.67 -9.502,-42.924 -6.504,-28.494 -14.978,-59.28 -34.662,-82.278 -10.406,-12.158 -47.85598,-36.412 -62.69198,-44.492 -12.936,-7.046 -25.394,-14.624 -38.866,-20.74 -43.572,-19.78 -112.642,-30.646 -160.48,-34.696 -64.798,-5.486 -130.272,-9.442 -194.472,2.336 -19.912,3.654 -38.834,5.806 -57.814,13.28 -7.338,2.888 -13.074,7.818 -20.062,10.934"
           id="path4865"
           inkscape:connector-curvature="0"
           style="fill:#c39977;fill-opacity:1"
           sodipodi:nodetypes="ccccsccccccccccsccsccc" />
        <path
           d="m 510.84172,506.84643 c -5.452,-0.04 -10.666,2.62 -15.012,5.76 -14.94,10.79 -3.566,33.55 8.378,27.578 5.324,-2.662 12.07,-27.09 5.412,-30.894 -4.064,-2.322 -11.12,0.932 -15.186,1.744"
           id="path4867"
           inkscape:connector-curvature="0"
           style="fill:#ffd5b3" />
        <path
           d="m 544.52772,575.61643 c -7.938,-2.654 -17.258,-5.63 -24.61,0.174 -25.644,20.246 9.918,38.086 15.708,31.768 3.416,-3.726 12.036,-29.198 9.252,-34.212 -2.468,-4.44 -17.598,-3.406 -21.296,-2.268"
           id="path4869"
           inkscape:connector-curvature="0"
           style="fill:#ffd5b3" />
        <path
           d="m 583.52372,-98.49357 c -55.27116,26.47008 -65.21506,27.372 -107.80884,58.78006 -4.126,6.362 -19.29516,11.54794 -19.29516,18.67594 0,29.524 47.54388,51.94092 74.95788,48.77092 8.826,-1.02 36.0074,-2.4257 30.65436,-11.10612 3.28064,2.7398 32.23824,11.42462 14.85806,-7.67412 0.318,0.276 -6.4983,8.81332 -5.2403,12.36132 1.166,3.288 4.456,5.612 7.036,8.012 16.826,15.64 39.336,21.198 63.774,19.078 24.032,-2.086 41.024,-19.652 51.896,-36.63 9.2624,-13.51912 3.69896,-15.95948 5.12582,-2.2929 5.14118,-13.9716 4.1084,-1.06696 9.82818,5.3469 12.898,14.242 27.83382,28.0943 48.66582,31.0103 9.692,1.356 25.21818,0.004 34.89818,-2.3943 19.726,-4.89 24.19,-28.718 24.19,-43.498 0,-0.38 -16.53728,3.90624 6.2725,16.04316 3.66624,17.66118 -3.1205,-9.54116 -1.4345,-7.26716 4.338,5.856 14.01042,21.12674 19.56242,26.19674 25.814,23.574 105.02558,13.05526 118.09758,-22.38074 10.928,-29.626 -14.88782,-36.63052 -40.30982,-52.15052 -25.444,-15.534 -58.71618,-42.39948 -88.11418,-50.48748 -23.482,-6.458 -46.678,-13.446 -70.81,-17.932 -13.978,-2.598 -28.014,-3.09 -42.222,-3.816 -59.578,-3.04 -98.874,-0.778 -155.692,16.026 -12.548,3.71 -23.21976,17.1968 -34.68776,23.1648"
           id="path4871"
           inkscape:connector-curvature="0"
           style="fill:#3d2d28;fill-opacity:1"
           sodipodi:nodetypes="ccscccccccccccscccccccccc" />
        <path
           d="m 365.44548,100.24031 c -50.83,2.142 -99.42376,-2.71388 -149.96776,4.77412 -10.714,1.586 -21.326,4.076 -32.064,5.61 -38.842,5.55 -78.232,1.8995 -117.032,8.1575 -11.748,1.894 -38.41516,2.43782 -50.16716,4.05982 -36.26948,0.0558 -21.1829,2.54776 -47.41758,11.91838 -13.492,1.174 -32.87812,3.9783 -42.45012,15.1423 -33.57,39.166 -21.88714,76.906 -21.88714,125.85 0,19.918 -0.636,40.358 2.404,60.12 3.312,21.53 7.45,42.428 9.62,64.128 3.466,34.662 7.58,69.144 13.626,103.404 1.528,8.656 4.982,16.472 7.214,24.85 2.93,10.984 5.052,25.852 14.43,33.666 9.104,7.588 36.552,4.81 48.096,4.81 33.38,0 65.116,-5.216 97.794,-12.024 10.19,-2.122 20.894,-5.26 31.262,-6.412 13.792,-1.532 27.866,-3.274 41.682,-4.81 8.554,-0.95 17.842,0 26.452,0 1.07,0 20.48542,-22.70972 3.208,0 26.92202,-16.98342 26.78596,9.452 27.49396,11.222 3.98,9.952 7.03338,28.88442 -14.66996,35.27 2.4803,3.842 -13.518,13.79 -10.42,18.438 2.712,4.068 40.186,-4.65256 45.69,-4.65256 5.982,0 14.172,-5.11848 20.04,-7.07448 8.302,-2.768 19.11154,-1.13138 16.39554,-5.78538 -8.232,-14.112 -24.74298,-21.05728 -30.17898,-36.28328 -0.852,-2.382 0.1468,-7.37682 3.72698,-17.7755 3.87824,-13.94886 0.31338,-10.61244 2.57938,-11.09844 10.322,-2.212 9.11508,-3.64606 19.50108,-5.59406 14.774,-2.77 29.426,-5.70988 44.088,-8.85188 11.858,-2.542 24.312,-7.83442 36.072,-11.10042 12.972,-3.602 26.004,-7.766 39.278,-10.42 13.21,-2.642 53.336,-6.044 62.524,-15.23 4.928,-4.93 5.5223,-25.036 5.5223,-31.262 0,-12.476 2.6102,-23.95 -0.8538,-36.072 -1.108,-3.882 -3.24994,-10.4663 -4.02394,-14.3423 -1.13,-5.644 -5.69256,-9.4897 -9.46256,-14.5157 -1.87,-2.494 -10.052,-1.374 -15.23,-5.61 -17.404,-14.24 -27.644,-23.824 -37.674,-44.89 -18.064,-37.934 -24.476,-84.328 -26.454,-125.85 -1.398,-29.37 2.41062,-67.57442 15.85662,-94.46442"
           id="path4873"
           inkscape:connector-curvature="0"
           style="fill:#cecece"
           sodipodi:nodetypes="cccccccssscccscccsccccsccccccccccsccccccc" />
        <path
           d="m 385.42572,140.95043 c 0.584,14.944 -0.966,29.632 -0.966,44.502 0,14.534 -1.114,29.538 0,44.018 1.18,15.338 4.928,30.48 7.738,45.468 1.44,7.678 11.9868,13.55982 15.0308,20.86582 5.182,12.438 1.5152,27.79818 9.6392,38.63018 5.24,6.988 16.05,13.322 18.864,21.768 3.044,9.13 2.42,19.968 2.42,29.506 0,4.97 2.062,15.862 -0.484,20.316 -10.85,18.986 -72.298,17.732 -91.906,19.832 -16.186,1.734 -32.844,2.84 -48.854,5.804 -17.976,3.33 -35.996,7.494 -54.176,9.674 -14.29,1.716 -28.806,2.802 -43.05,4.838 -38.23,5.462 -76.852,8.286 -115.124,14.028 -10.4,1.56 -61.248,12.008 -69.17,7.256 -5.34,-3.206 -5.146,-17.406 -6.288,-22.736 -6.808,-31.772 -14.91268,-63.868 -14.91268,-96.258 0,-20.484 2.25018,-40.964 2.83618,-61.43 0.504,-17.63 0.86582,-33.56988 2.00182,-51.15788 0.498,-7.744 -0.0282,-47.59588 13.46068,-56.22612 6.1237,-3.918 48.476,-8.708 56.11,-8.708 36.78,0 73.878,-6.574 110.286,-11.124 32.914,-4.114 65.976,-6.378 98.678,-11.61 35.134,-5.622 71.352,-13.544 106.9,-13.544"
           id="path4875"
           inkscape:connector-curvature="0"
           style="fill:#6b5fce;stroke:#6b5fce;stroke-width:2;stroke-opacity:1"
           sodipodi:nodetypes="cssccccsccccccccsccssccc" />
        <path
           d="m 255.21673,179.03709 c -4.20004,3.29912 -7.91219,7.13604 -9.88813,11.67163 -0.43295,0.99333 -1.1433,1.88096 -1.52286,2.89279 -3.31033,8.83432 0.23519,19.34415 5.20437,28.99937 4.59705,8.93177 12.35765,17.19794 20.41793,23.85328 8.49056,7.01061 21.1812,15.43517 31.41178,16.0854 5.02061,1.54633 9.71975,1.83032 14.82872,2.84084 10.04487,1.987 21.9355,3.30308 31.5033,2.72168 3.01007,-0.18301 5.92108,-0.85327 8.73433,-1.40131 2.22674,-0.43407 4.55917,-0.7806 6.62209,-1.45119 5.55819,-1.80631 10.06907,-4.59604 14.07523,-7.79473 2.65705,-2.1208 5.06994,-4.28618 6.91845,-6.92297 5.97009,-8.51719 7.99616,-17.27123 5.69068,-27.95447 -0.64325,-2.982 -2.62055,-6.13841 -3.88863,-9.12965 -1.02538,-2.41777 -2.80925,-4.73544 -4.23641,-7.08978 -2.85274,-4.70638 -6.23346,-9.79132 -11.5141,-13.58992 -2.79163,-2.00814 -11.80436,-6.01419 -15.29376,-7.34877 -3.04257,-1.16379 -6.01472,-2.41546 -9.11857,-3.42564 -10.0386,-3.26708 -24.86534,-5.06182 -34.95006,-5.73076 -13.66007,-0.90613 -27.37849,-1.55954 -39.99979,0.38584 -3.91452,0.60353 -7.70442,0.95898 -11.2241,2.19346 -1.36086,0.47702 -2.28291,1.29131 -3.55946,1.80598"
           id="path4865-0"
           inkscape:connector-curvature="0"
           style="fill:#ffd5b3;stroke:#000000;stroke-width:5.30000019;stroke-miterlimit:4;stroke-dasharray:none;stroke-opacity:1"
           sodipodi:nodetypes="ccccsccccccccccsccsccc" />
        <path
           d="m 219.68822,292.52999 c 0.34728,8.9394 -0.57448,17.72564 -0.57448,26.6208 0,8.69412 -0.66244,17.66942 0,26.33126 0.70172,9.17508 2.9305,18.23292 4.60152,27.19866 0.8563,4.59292 0.15,9.75576 1.96014,14.12616 3.08158,7.44032 -0.8435,19.91744 3.98754,26.39708 3.11602,4.18016 -0.0504,7.96912 1.62284,13.02148 1.81012,5.46148 -0.30548,6.18934 -0.30548,11.89492 0,2.97302 -8.3687,2.08882 -9.88272,4.75316 -6.4521,11.3573 -17.69726,0.74086 -29.35742,1.99708 -9.62522,1.03726 -20.3115,4.1847 -29.83206,5.95776 -10.68968,1.99198 -21.4974,1.17482 -32.30834,2.47888 -8.49776,1.02648 -28.73318,7.12844 -37.20358,8.34636 -22.73396,3.26734 -16.57898,2.26278 -39.33794,5.6976 -6.1845,0.93318 -15.48756,8.48662 -20.1985,5.64398 -3.17548,-1.91782 -17.72724,0.46572 -18.40634,-2.72264 -4.04848,-19.00578 -18.00868,-33.45048 -18.00868,-52.82596 0,-12.2534 -1.01484,-22.93576 -0.66638,-35.17838 0.29972,-10.54616 -2.62238,-20.8656 -1.94684,-31.38662 0.29614,-4.63242 -3.93956,-30.04016 4.083,-35.20268 3.64156,-2.34374 28.8269,-5.20908 33.36656,-5.20908 21.87172,0 45.50114,0.77336 67.15164,-1.94842 19.57276,-2.46098 37.66486,-8.52118 57.11156,-11.65092 20.89288,-3.36302 18.90098,2.09416 40.04006,2.09416"
           id="path10031"
           inkscape:connector-curvature="0"
           style="fill:#d67b64;fill-opacity:1;stroke:#d67b64;stroke-width:1.19285107;stroke-opacity:1"
           sodipodi:nodetypes="cssccccsccccccccsccssccc" />
        <path
           d="m 406.07304,299.37151 c 0.31226,8.52756 8.89522,7.49728 8.89522,15.98262 0,8.29358 6.46316,4.30636 7.05882,12.56914 0.63096,8.7524 11.26248,15.82432 12.765,24.37698 0.76996,4.38134 -0.64952,9.30632 0.97818,13.47538 2.77084,7.09754 -8.6016,20.56846 -4.25768,26.74958 2.80184,3.98758 -0.0454,7.60198 1.4592,12.42156 1.62762,5.2099 -0.27466,5.90422 -0.27466,11.34694 0,2.83604 -5.95626,-1.92898 -7.31762,0.61262 -5.80152,10.83406 -17.48144,4.62828 -27.96588,5.82662 -8.6547,0.98948 -18.3461,0.83628 -26.90668,2.52764 -9.61182,1.90022 -19.24716,4.27634 -28.96804,5.52032 -7.6409,0.9792 -27.95166,0.81462 -35.56798,1.97642 -20.44166,3.1168 -15.21058,3.94394 -35.67472,7.22052 -5.5609,0.89018 -17.0632,5.28358 -21.29912,2.57192 -2.8553,-1.82946 -17.65354,3.40086 -18.26416,0.35938 -3.64026,-18.13018 -0.91502,-31.73938 -0.91502,-50.22222 0,-11.68888 -1.93408,-21.02252 -1.62074,-32.70112 0.2695,-10.06028 -12.87038,-18.3718 -12.26296,-28.40812 0.26628,-4.419 -0.016,-27.15984 7.19746,-32.08454 3.27436,-2.23576 25.92024,-4.9691 30.00216,-4.9691 19.66636,0 39.50274,-3.75134 58.9702,-6.34772 17.5992,-2.3476 37.63046,7.34088 55.11632,4.35532 18.78622,-3.2081 17.75992,1.6831 36.76752,1.6831"
           id="path10029"
           inkscape:connector-curvature="0"
           style="fill:#966c9e;fill-opacity:1;stroke:#966c9e;stroke-width:1.10475254;stroke-opacity:1"
           sodipodi:nodetypes="cssccccsccccccccsccssccc" />
        <path
           sodipodi:nodetypes="cssccccsccccccccsccssccc"
           style="fill:#a8ca1e;fill-opacity:1;stroke:#aad400;stroke-width:1.10475254;stroke-opacity:1"
           inkscape:connector-curvature="0"
           id="path10027"
           d="m 204.5044,155.84211 c 0.31226,8.52756 -0.51654,16.90904 -0.51654,25.39438 0,8.29358 -0.59566,16.85538 0,25.11816 0.63096,8.7524 2.63502,17.39294 4.13754,25.9456 0.76996,4.38134 0.1348,9.30632 1.7625,13.47538 2.77084,7.09754 -0.75846,18.99984 3.58546,25.18096 2.80184,3.98758 -0.0454,7.60198 1.4592,12.42156 1.62762,5.2099 -0.27466,5.90422 -0.27466,11.34694 0,2.83604 -7.52488,1.99258 -8.88624,4.53418 -5.80152,10.83406 -15.91282,0.70672 -26.39726,1.90506 -8.6547,0.98948 -18.3461,0.83628 -26.90668,2.52764 -9.61182,1.90022 -19.24716,4.27634 -28.96804,5.52032 -7.6409,0.9792 -27.95166,0.81462 -35.56798,1.97642 -20.44166,3.1168 -26.19098,-2.33056 -46.65512,0.94602 -5.5609,0.89018 -13.92594,1.362 -18.16186,-1.34966 -2.8553,-1.82946 -28.63392,4.18518 -29.24454,1.1437 -3.64026,-18.13018 1.43792,-19.19036 1.43792,-37.6732 0,-11.68888 1.20316,-23.37546 1.5165,-35.05406 0.2695,-10.06028 0.46296,-19.15612 1.07038,-29.19244 0.26628,-4.419 -0.016,-27.15984 7.19746,-32.08454 3.27436,-2.23576 25.92024,-4.9691 30.00216,-4.9691 19.66636,0 39.50274,-3.75134 58.9702,-6.34772 17.5992,-2.3476 35.27752,-3.63952 52.76338,-6.62508 18.78622,-3.2081 38.15208,-7.72866 57.15968,-7.72866" />
        <path
           d="m 635.47772,488.93843 c 0.01,2.6 -0.006,5.312 -0.684,7.85 -2.5,9.38 -6.656,18.264 -9.214,27.646 -6.646,24.364 -12.444,48.966 -17.748,73.72 -5.51,25.708 -14.04842,49.13782 -16.41042,75.12582 -5.67644,-4.2185 -2.336,14.00818 -0.682,15.66218 5.964,5.964 40.14642,6.546 48.49242,7.508 43.06,4.97 87.144,2.048 130.378,2.048 4.182,0 17.282,2.36 20.82,0 3.47,-2.314 2.388,-19.272 2.388,-22.526 0,-33.428 3.756,-66.602 3.756,-100.002 0,-18.532 2.19,-37.116 3.07,-55.632 0.142,-2.958 2.598,-21.796 1.024,-23.892 -1.452,-1.936 -27.48,-0.12 -30.716,0 -34.046,1.262 -69.61,0.984 -103.416,-3.072 -4.314,-0.518 -29.514,-2.952 -31.742,-4.436"
           id="path4877"
           inkscape:connector-curvature="0"
           style="fill:#7a8f7d;fill-opacity:1"
           sodipodi:nodetypes="cccccscscssccccc" />
        <path
           d="m 703.73772,549.34843 c -10.162,13.456 -30.792,45.082 -46.076,51.196 -6.934,2.774 -15.024,-6.266 -20.82,-8.874 -17.874,-8.044 -38.16,-10.912 -57.338,-13.652 -2.704,-0.386 -21.686,-3.834 -23.21,-3.072 -3.632,1.816 -13.594,38.182 -10.922,39.25 6.796,2.718 16.944,2.45 24.234,4.096 27.292,6.162 55.128,12.704 82.936,16.042 2.826,0.338 14.026,3.522 16.724,1.364 4.194,-3.356 3.708,-19.836 4.096,-24.232 1.28,-14.5 0.496,-42.962 5.12,-55.292"
           id="path4879"
           inkscape:connector-curvature="0"
           style="fill:#7a8f7d;fill-opacity:1" />
        <path
           d="m 632.40572,538.76843 c 0.086,-0.652 3.476,0.276 2.73,1.024 -1.136,1.136 -43.934,-7.216 -48.806,-8.192 -6.986,-1.396 -13.928,-3.054 -20.82,-4.778 -11.046,-2.762 -40.916,-11.986 -41.298,-11.604 -0.828,0.828 -3.9325,-6.53152 -4.5825,-5.55752 -2.422,3.63 -8.1661,33.74114 -3.0521,37.71714 16.75,13.028 62.3426,7.34438 83.4046,10.50238 3.962,0.596 33.108,5.87 36.178,3.414 2.91,-2.328 2.522,-24.774 6.484,-30.718"
           id="path4881"
           inkscape:connector-curvature="0"
           style="fill:#7a8f7d;fill-opacity:1"
           sodipodi:nodetypes="ccccscccsc" />
        <path
           d="m 713.24572,349.01243 0,0"
           id="path4883"
           inkscape:connector-curvature="0"
           style="fill:#fffcaf" />
        <path
           d="m 815.59572,234.67643 0,0"
           id="path4885"
           inkscape:connector-curvature="0"
           style="fill:#fffcaf" />
        <g
           id="g4889"
           transform="matrix(2,0,0,2,-489.12228,-426.44157)">
          <path
             d="m 604.894,415.385 c -3.335,0.093 -6.788,-0.925 -10.108,-0.261 -6.654,1.331 -14.225,8.51 -11.347,15.912 4.059,10.437 21.313,8.09 29.02,4.37 2.127,-1.027 3.718,-2.807 4.891,-4.826 3.735,-6.434 -3.454,-12.706 -9.26,-14.738 -2.965,-1.038 -6.095,-0.979 -9.195,-0.979"
             id="path4891"
             inkscape:connector-curvature="0"
             style="fill:#ff8080" />
          <path
             d="m 604.894,415.385 c -3.335,0.093 -6.788,-0.925 -10.108,-0.261 -6.654,1.331 -14.225,8.51 -11.347,15.912 4.059,10.437 21.313,8.09 29.02,4.37 2.127,-1.027 3.718,-2.807 4.891,-4.826 3.735,-6.434 -3.454,-12.706 -9.26,-14.738 -2.965,-1.038 -6.095,-0.979 -9.195,-0.979"
             id="path4893"
             inkscape:connector-curvature="0"
             style="fill-opacity:0;stroke:#000000;stroke-width:1;stroke-linecap:round;stroke-linejoin:round" />
        </g>
        <path
           d="m 550.35972,571.40443 c -13.71,-1.516 -30.984,-7.25 -40.95,6.34 -3.502,4.776 -5.228,9.056 -4.626,15.078 1.106,11.064 23.962,18.77 32.896,20.046"
           id="path4915"
           inkscape:connector-curvature="0"
           style="fill:#c39977;fill-opacity:1;stroke:#000000;stroke-width:13;stroke-linecap:round;stroke-linejoin:round" />
        <path
           d="m 464.95172,-24.12957 c 0.546,4.378 -0.788,9.1 0,13.434 5.328,29.306 51.17,41.712 75.896,35.26 10.008,-2.61 14.5155,-0.9615 23.6175,-5.8175 0.028,-0.014 10.4785,-8.6865 10.6365,-8.6225 1.816,0.726 0.238,6.61 0.672,8.06 2.232,7.436 8.46,12.33 14.776,16.12 15.696,9.416 52.294,13.25 69.852,9.738 5.624,-1.124 11.97,-4.71 16.792,-7.724 11.72,-7.324 20.486,-25.524 23.508,-27.538 1.178,-0.784 0.64,2.802 1.342,4.03 2.234,3.908 6.228,8.242 9.404,11.418 9.226,9.228 23.85,17.856 36.27,21.83 18.886,6.044 47.166,6.266 60.784,-10.076 4.328,-5.194 9.328,-22.424 10.746,-23.842 0.332,-0.332 9.938,11.28 10.746,12.088 7.902,7.902 19.874,14.496 30.56,17.464 18.198,5.054 39.028,9.44 58.098,6.716 8.358,-1.194 14.82,-5.644 21.494,-10.41 14.648,-10.464 22.836,-21.61 22.836,-39.628"
           id="path4899"
           inkscape:connector-curvature="0"
           style="fill-opacity:0;stroke:#000000;stroke-width:13;stroke-linecap:round;stroke-linejoin:round"
           sodipodi:nodetypes="ccccccccccscccsscccc" />
        <path
           d="m 517.78372,230.35643 c -2.78,-2.592 -3.392,-6.624 -4.356,-10.234 -3.462,-12.988 4.802,-20.672 13.718,-11.756 7.018,7.018 3.248,27.032 -8.71,25.038 -12.348,-2.058 -10.014,-30.574 2.396,-25.256 8.008,3.432 5.644,27.166 -3.484,23.514 -7.128,-2.852 -7.716,-30.638 6.096,-23.732 3.29,1.646 4.622,4.146 5.008,7.62"
           id="path4901"
           inkscape:connector-curvature="0"
           style="fill-opacity:0;stroke:#000000;stroke-width:13;stroke-linecap:round;stroke-linejoin:round" />
        <path
           d="m 644.71972,246.46843 c -3.514,-3.978 -6.304,-8.858 -7.186,-14.152 -4.364,-26.182 29.05,-22.82 27.216,6.532 -0.366,5.864 -11.092,13.622 -16.982,10.45 -10.872,-5.854 -12.622,-33.35 4.354,-30.264 7.164,1.302 9.786,19.768 5.008,23.95 -10.128,8.862 -13.412,-25.152 -3.92,-18.506 8.476,5.932 -0.652,27.11 -0.652,6.096"
           id="path4903"
           inkscape:connector-curvature="0"
           style="fill-opacity:0;stroke:#000000;stroke-width:13;stroke-linecap:round;stroke-linejoin:round" />
        <path
           d="m 675.56172,417.18043 c 3.552,-12.264 23.434,-15.558 34.258,-16.1 15.066,-0.752 35.28,3.404 37.816,21.154 0.452,3.166 0.722,7.492 -0.56,10.484 -7.596,17.724 -35.644,25.616 -53.356,20.406 -14.198,-4.176 -26.91506,-32.11262 -16.17906,-38.82262"
           id="path4905"
           inkscape:connector-curvature="0"
           style="fill:#c37791;fill-opacity:1;stroke:#000000;stroke-width:13;stroke-linecap:round;stroke-linejoin:round"
           sodipodi:nodetypes="cccccc" />
        <path
           d="m 518.66172,507.83843 c -5.93,0.442 -12.264,-1.73 -18.162,-0.342 -9.836,2.314 -21.6475,11.9874 -16.4835,24.0354 5.06,11.808 17.1875,15.6926 28.1355,17.2566"
           id="path4917"
           inkscape:connector-curvature="0"
           style="fill:#c39977;fill-opacity:1;stroke:#000000;stroke-width:13;stroke-linecap:round;stroke-linejoin:round"
           sodipodi:nodetypes="cccc" />
        <path
           d="m 692.99372,562.69643 c -8.726,6.126 -23.134,27.582 -30.3,32.358 -1.97,1.314 -7.61,0.324 -9.706,0 -16.25,-2.498 -31.652,-9.048 -47.364,-13.238 -17.668,-4.71 -37.278,-5.462 -54.422,-11.178 -0.956,-0.318 -5.386,16.876 -5.59,19.122 -0.194,2.142 -6.94586,23.67428 -6.01986,24.23028 6.224,3.734 18.40986,3.56572 25.43586,5.18772 20.608,4.754 41.29,9.292 61.778,14.414 9.39,2.348 30.186,8.968 39.418,7.648 9.976,-1.424 32.648,-21.882 43.244,-28.24"
           id="path4907"
           inkscape:connector-curvature="0"
           style="fill:#7a8f7d;fill-opacity:1;stroke:#000000;stroke-width:13;stroke-linecap:round;stroke-linejoin:round"
           sodipodi:nodetypes="ccccccccccc" />
        <path
           d="m 630.04172,489.74043 c -6.342,28.668 -13.664,58.026 -19.416,86.782"
           id="path4909"
           inkscape:connector-curvature="0"
           style="fill-opacity:0;stroke:#000000;stroke-width:13;stroke-linecap:round;stroke-linejoin:round" />
        <path
           d="m 600.32972,631.82643 c 1.012,17.962 -11.326,33.098 -13.238,50.304 -0.12,1.082 -2.842,9.966 -2.06,10.592 4.476,3.58 15.942,1.456 21.18,1.764 24.922,1.466 50.128,-0.894 75.016,0.882 12.448,0.89 24.864,2.698 37.36,3.53 17.458,1.164 43.46,-1.78 59.718,1.472 2.244,0.448 13.296,3.178 14.708,1.764 1.876,-1.874 1.41,-54.552 1.766,-60.6 0.754,-12.828 0.758,-25.704 1.47,-38.536 0.366,-6.562 1.966,-12.936 2.648,-19.416 2.982,-28.322 6.178,-57.88 6.178,-86.194"
           id="path4911"
           inkscape:connector-curvature="0"
           style="fill-opacity:0;stroke:#000000;stroke-width:13;stroke-linecap:round;stroke-linejoin:round" />
        <path
           d="m 617.52372,536.28043 c -27.398,-7.24 -54.064,-17.936 -81.9,-23.988 -2.484,-0.54 -14.104,-5.33 -16.448,-3.768 -0.082,0.054 -4.2673,10.82648 -3.94,21.074 -0.406,2.638 -4.208,14.764 -2.742,16.962 1.71,2.566 14.624,2.9 17.476,3.256 14.688,1.836 29.696,6.198 44.206,9.252 11.996,2.526 24.206,3.514 36.152,6.168"
           id="path4913"
           inkscape:connector-curvature="0"
           style="fill-opacity:0;stroke:#000000;stroke-width:13;stroke-linecap:round;stroke-linejoin:round"
           sodipodi:nodetypes="cccccccc" />
        <path
           d="m 773.79172,706.21043 c 0.756,14.326 6.766,57.656 -2.082,68.718 -0.266,0.33 -26.118,4.152 -27.764,4.396 -33.716,4.994 -67.232,11.044 -100.88,16.426 -4.704,0.754 -22.632,0.064 -25.914,4.166 -0.8,1 -5.042,22.07 -6.016,24.988 -7.852,23.556 -17.342,47.61 -22.212,71.958 -0.738,3.688 -5.852,2.312 -9.024,2.312 -12.884,0 -38.814,-11.51 -51.596,-16.426 -1.588,-0.612 -13.27,-4.842 -12.726,-6.48 1.088,-3.258 4.108,-6.504 5.554,-9.716 9.922,-22.05 19.81,-43.902 30.31,-65.712 2.596,-5.39 21.306,-42.992 24.756,-45.58 1.492,-1.118 9.302,-0.774 11.338,-1.156 10.238,-1.92 20.524,-4.92 30.542,-7.868 22.96,-6.752 49.546,-19.34 72.882,-22.674"
           id="path4919"
           inkscape:connector-curvature="0"
           style="fill-opacity:0;stroke:#000000;stroke-width:13;stroke-linecap:round;stroke-linejoin:round" />
        <path
           d="m 626.40772,699.03643 c -25.132,9.594 -50.158,22.696 -74.04,35.632 -2.988,1.618 -11.332,3.692 -12.958,6.942 -3.99,7.98 8.698,36.34 11.338,45.58"
           id="path4921"
           inkscape:connector-curvature="0"
           style="fill-opacity:0;stroke:#000000;stroke-width:13;stroke-linecap:round;stroke-linejoin:round" />
        <path
           d="m 534.19372,886.48043 c -7.282,2.444 -14.772,5.666 -21.824,9.062 -3.848,1.852 -35.264,16.922 -32.548,21.266 5.85,9.36 61.918,22.32 73.974,24.042 2.4,0.344 16.1,5.204 18.124,2.774 4.364,-5.238 8.032,-34.136 9.432,-42.534"
           id="path4923"
           inkscape:connector-curvature="0"
           style="fill-opacity:0;stroke:#000000;stroke-width:13;stroke-linecap:round;stroke-linejoin:round" />
        <path
           d="m 599.65972,871.87043 c 17.576,24.766 17.384,13.668 35.876,-3.144 2.818,-2.56 12.392,-9.93 12.392,-11.466 0,-0.934 -2.87,-3.48 -3.514,-4.254"
           id="path4925"
           inkscape:connector-curvature="0"
           style="fill-opacity:0;stroke:#000000;stroke-width:13;stroke-linecap:round;stroke-linejoin:round" />
        <path
           d="m 638.67972,814.54043 c -0.304,3.96 -2.472,31.128 -0.37,32.18 3.01,1.504 28.888,0.924 34.584,0.924"
           id="path4927"
           inkscape:connector-curvature="0"
           style="fill-opacity:0;stroke:#000000;stroke-width:13;stroke-linecap:round;stroke-linejoin:round" />
        <path
           d="m 627.02972,799.19043 c 2.18,8.502 6.378,17.196 10.356,25.152"
           id="path4929"
           inkscape:connector-curvature="0"
           style="fill-opacity:0;stroke:#000000;stroke-width:13;stroke-linecap:round;stroke-linejoin:round" />
        <path
           d="m 618.83372,887.36843 c -1.66,6.022 -14.372,46.26 -12.452,48.18 2.91,2.91 22.866,-13.758 26.256,-15.97 7.038,-4.59 38.294,-20.686 40.468,-27.202 1.59,-4.772 -20.54,-30.204 -24.904,-35.19"
           id="path4931"
           inkscape:connector-curvature="0"
           style="fill-opacity:0;stroke:#000000;stroke-width:13;stroke-linecap:round;stroke-linejoin:round" />
        <path
           d="m 638.30772,811.16643 c 28.434,0.696 57.034,2.098 85.518,2.098 25.092,0 50.154,1.05 75.288,1.05 2.49,0 24.444,1.144 25.97,0 0.304,-0.228 8.566,-28.578 9.182,-30.694 10.576,-36.258 19.852,-72.866 29.38,-109.39 1.4,-5.36 9.396,-40.348 11.806,-42.758 2.882,-2.884 28.056,5.4 30.166,8.918 0.808,1.346 0.264,4.498 0.264,6.034 0,22.52 0.776,45.176 0,67.68 -1.02,29.548 -2.458,59.606 -1.05,89.192 0.39,8.18 1.312,16.178 1.312,24.396 0,3.902 2.932,19.626 0,22.56 -4.22,4.218 -33.538,1.836 -39.874,1.836 -31.08,0 -61.63,-2.648 -92.602,-4.196 -35.662,-1.784 -71.56,-1.312 -107.29,-1.312"
           id="path4933"
           inkscape:connector-curvature="0"
           style="fill-opacity:0;stroke:#000000;stroke-width:13;stroke-linecap:round;stroke-linejoin:round" />
        <path
           d="m 745.71772,849.33443 c 0.536,24.392 1.476,49.032 5.288,73.17 0.672,4.26 4.178,15.052 2.558,19.104 -1.466,3.668 -23.514,16.87 -28.142,19.954 -0.844,0.564 -7.942,4.802 -7.504,5.458 0.576,0.866 28.562,0.046 30.188,-0.17 16.274,-2.17 33.358,-0.852 49.804,-0.852 1.152,0 17.878,0.358 17.738,-0.342 -1.4,-7.002 -33.396,-20.044 -35.134,-24.39 -2.444,-6.108 -1.41806,-32.5168 -1.80806,-39.5288 -1.176,-21.162 0.95406,-32.1492 0.95406,-53.2572"
           id="path4935"
           inkscape:connector-curvature="0"
           style="fill-opacity:0;stroke:#000000;stroke-width:13;stroke-linecap:round;stroke-linejoin:round"
           sodipodi:nodetypes="ccccccscccc" />
        <path
           d="m 496.86972,474.82043 c 9.432,0.908 18.742,5.668 27.336,9.68 12.466,5.816 26,10.314 37.526,17.998 11.116,7.412 21.548,16.686 32.43,23.94"
           id="path4939"
           inkscape:connector-curvature="0"
           style="fill-opacity:0;stroke:#000000;stroke-width:13;stroke-linecap:round;stroke-linejoin:round" />
        <path
           d="m 509.34772,571.40443 c -23.574,11.704 -45.686,26.604 -67.914,40.748 -5.092,3.242 -16.49,9.292 -18.11,15.768 -2.246,8.992 17.79,27.012 26.542,25.76 11.82,-1.688 50.848,-41.852 64.478,-47.304"
           id="path4941"
           inkscape:connector-curvature="0"
           style="fill-opacity:0;stroke:#000000;stroke-width:13;stroke-linecap:round;stroke-linejoin:round" />
        <path
           d="m 338.28772,607.44043 c 3.4051,3.96 27.0961,17.3342 27.0961,17.3342 6.4807,-0.0676 23.3,-20.26928 24.0859,-28.6882 0.54576,-5.8464 -10.28,-5.686 -15.372,-8.036 -10.636,-4.908 -4.402,-11.5 -16.596,-1.048 -2.752,2.36 -6.058,4.32 -8.384,7.162 -3.064,3.744 -5.614,7.474 -8.384,11.354"
           id="path4943"
           inkscape:connector-curvature="0"
           style="fill-opacity:0;stroke:#000000;stroke-width:13;stroke-linecap:round;stroke-linejoin:round"
           sodipodi:nodetypes="csscccc" />
        <path
           d="m 396.80572,563.24643 c 2.386,4.098 12.132,23.36 18.69,21.486 4.014,-1.148 10.232,-9.202 13.8,-11.878 2.932,-2.2 10.526,-5.9 11.704,-9.434 1.526,-4.576 -6.678,-10.39 -9.084,-13.276 -1.694,-2.034 -3.582,-5.786 -6.288,-6.462 -3.682,-0.922 -24.328,13.504 -27.424,17.118"
           id="path4945"
           inkscape:connector-curvature="0"
           style="fill-opacity:0;stroke:#000000;stroke-width:13;stroke-linecap:round;stroke-linejoin:round" />
        <path
           d="m 449.20972,522.72043 c 1.274,5.082 5.196,8.958 8.21,13.1 8.102,11.142 9.862,4.71 19.39,-2.096"
           id="path4947"
           inkscape:connector-curvature="0"
           style="fill-opacity:0;stroke:#000000;stroke-width:13;stroke-linecap:round;stroke-linejoin:round" />
        <path
           d="m 448.33572,518.52843 c 4.386,-3.652 30.572,-23.556 35.112,-20.962 3.734,2.134 6.154,6.45 9.432,9.258"
           id="path4949"
           inkscape:connector-curvature="0"
           style="fill-opacity:0;stroke:#000000;stroke-width:13;stroke-linecap:round;stroke-linejoin:round" />
        <path
           d="m 721.40572,-115.62957 c -70.302,-2.242 -138.848,11.516 -200.428,46.154 -17.934,10.088 -34.644,20.102 -49.318,34.776 -28.154,28.154 -63.924,79.13 -75.238,117.602 -16.01,54.426 -16.126,144.466 1.896,198.532 13.162,39.488 52.468,99.98 84.092,127.086 9.564,8.198 16.198,19.022 26.554,26.554 31.128,22.638 67.546,36.242 104.958,44.26 14.78,3.166 29.206,10.006 44.258,12.012 9.506,1.268 18.976,3.164 28.452,5.058 14.324,2.866 30.326,1.898 44.892,1.898 39.688,0 78.274,-0.04 116.336,-13.278 7.012,-2.438 13.752,-5.956 20.866,-8.22 6.932,-2.206 13.498,-4.068 20.232,-6.954 64.16,-27.498 148.34198,-114.626 169.44798,-181.462 11.196,-35.452 13.698,-75.476 11.38,-112.544 -1.922,-30.75 -30.09,-100.394 -48.684,-125.188 -17.136,-22.848 -89.28398,-81.888 -114.43998,-97.37 -15.818,-9.734 -33.34,-16.352 -49.95,-24.658 -37.246,-18.622 -106.93686,-44.73994 -148.81086,-44.73994"
           id="path4897"
           inkscape:connector-curvature="0"
           style="fill-opacity:0;stroke:#000000;stroke-width:13;stroke-linecap:round;stroke-linejoin:round"
           sodipodi:nodetypes="ccscccccccscsccccccc" />
        <path
           d="m 459.34172,563.42043 c 2.052,-2.32 4.786,-3.59 7.336,-5.24 1.882,-1.218 7.302,-6.236 9.956,-5.24 2.622,0.982 12.578,12.574 11.53,15.196 -0.882,2.206 -10.544,5.728 -12.752,7.162 -0.874,0.57 -7.808,6.234 -9.084,5.24 -4.058,-3.154 -5.792,-11.61 -8.908,-15.894"
           id="path4951"
           inkscape:connector-curvature="0"
           style="fill-opacity:0;stroke:#000000;stroke-width:13;stroke-linecap:round;stroke-linejoin:round" />
        <path
           d="m 307.98972,629.39243 c 38.77,2.092 82.712,21.888 107.644,52.574 7.51,9.242 13.25,20.266 18.496,30.756"
           id="path4953"
           inkscape:connector-curvature="0"
           style="fill-opacity:0;stroke:#000000;stroke-width:13;stroke-linecap:round;stroke-linejoin:round" />
        <path
           d="m -27.63772,129.56443 c -1.182,18.428 -13.6205,26.2772 -15.79656,54.866 -7.61,100.504 -11.566,229.076 16.3,326.018 2.854,9.926 12.354,45.59 17.824,52.756 2.594,3.402 8.654,5.86 12.768,6.412 26.748,3.596 98.134,-10.32 126.836,-16.798 17.474,-3.944 34.462,-9.946 51.938,-11.724 11.062,-1.126 24.108,-1.352 34.778,-4.64 0.594,-0.182 7.852,-1.696 8.186,-1.17 1.226,1.934 -0.56,7.136 -0.218,9.512 1.288,9.002 2.342,20.336 5.458,28.678 0.338,0.906 1.484,5.228 0.54,6.132 -1.138,1.086 -5.224,1.262 -6.858,2.562 -4.162,3.308 -35.898,23.278 -33.966,28.452 0.412,1.102 19.644,0.8 21.744,0.5 2.836,-0.406 5.42,-1.9 8.216,-2.53 14.654,-3.308 29.374,-4.1 43.704,-8.514 3.354,-1.032 27.536,-7.024 28.742,-8.178 1.788,-1.706 -6.784,-3.244 -8.74,-4.28 -5.26,-2.782 -11.464,-4.866 -16.12,-8.528 -10.066,-7.916 -10.91,-27.34 -12.684,-39.722 -0.19,-1.328 -1.814,-9.426 0.236,-10.192 5.838,-2.182 13.608,-1.968 19.782,-2.944 3.404,-0.54 6.874,-2.566 10.27,-3.164 10.676,-1.88 21.496,-3.516 32.076,-5.382 6.566,-1.156 12.644,-5.06 19.182,-6.356 18.416,-3.652 36.852,-8.658 55.35,-12.326 12.894,-2.554 27.146,-4.072 39.644,-9.286 6.356,-2.65 12.546,-6.338 19.23,-8.396 4.464,-1.374 14.892,-2.864 17.838,-7.068 1.958,-2.798 1.736,-16.4 1.826,-20.352 0.292,-12.69 1.864,-26.08 0.892,-38.732 -0.564,-7.328 -3.76,-13.95 -3.594,-21.156"
           id="path4955"
           inkscape:connector-curvature="0"
           style="fill-opacity:0;stroke:#000000;stroke-width:13;stroke-linecap:round;stroke-linejoin:round"
           sodipodi:nodetypes="cccccscccccccccccccccccsccccccccc" />
        <path
           d="m -29.80628,128.33443 c 8.77,-2.008 17.282,-5.696 26.454,-6.614 21.408,-2.14 42.948,-2.524 64.404,-4.312 63.758,-5.314 127.262,-10.094 191.206,-12.652 40.818,-1.632 96.394,-8.246 136,-2.588"
           id="path4957"
           inkscape:connector-curvature="0"
           style="fill-opacity:0;stroke:#000000;stroke-width:13;stroke-linecap:round;stroke-linejoin:round" />
        <path
           d="m 386.61172,137.55443 c -14.974,0.524 -30.036,-0.748 -44.998,0 -14.718,0.736 -29.286,3.578 -43.916,5.04 -31.852,3.186 -64.046,4.122 -95.752,9 -14.714,2.264 -29.804,2.786 -44.638,4.32 -32.296,3.34 -64.2,10.166 -96.472,14.038 -14.37,1.724 -49.406,1.11 -57.596,14.76 -7.822,13.038 -6.7,46.21 -7.198,61.194 -0.776,23.27 -2.16,46.544 -2.16,69.836 0,40.364 1.58,80.006 7.558,119.87 1.288,8.584 1.8,27.944 10.08,33.118 16.448,10.28 81.714,-4.378 102.232,-6.84 30.172,-3.62 60.21,-8.622 90.354,-12.238 17.54,-2.106 35.458,-2.454 52.916,-5.04 13.37,-1.982 26.33,-6.088 39.596,-8.64 22.522,-4.33 44.964,-8.994 67.674,-12.238 19.612,-2.802 40.002,-5.79 59.756,-7.2 2.45,-0.176 8.056,0.612 9.72,-2.16 5.102,-8.504 3.24,-43.646 3.24,-55.436"
           id="path4959"
           inkscape:connector-curvature="0"
           style="fill-opacity:0;stroke:#000000;stroke-width:13;stroke-linecap:round;stroke-linejoin:round" />
        <path
           d="m -25.47828,129.44243 c -12.738,0.022 -40.334,2.668 -47.922,14.052 -11.022,16.534 -10.418,39.71 -12.612,58.73 -2.996,25.978 -4.174,52.064 -5.044,78.19 -2.642,79.24 -3.46,135.26 20.538,212.584 4.198,13.526 19.19,61.092 30.626,70.622 9.506,7.922 25.634,7.206 37.474,7.206"
           id="path4961"
           inkscape:connector-curvature="0"
           style="fill-opacity:0;stroke:#000000;stroke-width:13;stroke-linecap:round;stroke-linejoin:round" />
        <path
           d="m 193.23172,546.14843 c -10.568,4.528 -21.094,9.562 -31.48,14.548 -10.864,5.214 -20.992,12.434 -31.48,18.364 -7.078,4 -14.73,6.954 -21.942,10.732 -26.244,13.746 -52.41,28.174 -77.984,43.166 -15.178,8.896 -46.398,24.148 -56.76,38.396 -7.632,10.494 -4.054,40.608 -4.054,53.896 0,7.33 -0.622,31.968 6.678,37.444 2.966,2.224 13.822,1.668 17.408,1.908 21.16,1.41 42.54,0.81 63.676,2.622 31.002,2.658 61.954,5.282 92.772,9.302 18.948,2.47 37.5,7.438 56.282,10.254 18.234,2.736 37.66,4.73 55.328,9.778"
           id="path4963"
           inkscape:connector-curvature="0"
           style="fill-opacity:0;stroke:#000000;stroke-width:13;stroke-linecap:round;stroke-linejoin:round" />
        <path
           d="m 264.25172,796.55843 c 36.96,10.346 80.504,13.494 115.044,31.824"
           id="path4965"
           inkscape:connector-curvature="0"
           style="fill-opacity:0;stroke:#000000;stroke-width:13;stroke-linecap:round;stroke-linejoin:round" />
        <path
           d="m 381.69172,830.33243 c 43.774,-25.08 89.908,-48.152 131.528,-75.898 7.046,-4.698 15.93,-7.99 22.856,-12.938"
           id="path4967"
           inkscape:connector-curvature="0"
           style="fill-opacity:0;stroke:#000000;stroke-width:13;stroke-linecap:round;stroke-linejoin:round" />
        <path
           d="m 373.28172,775.35043 c 0.702,17.582 1.652,36.254 8.194,52.61"
           id="path4969"
           inkscape:connector-curvature="0"
           style="fill-opacity:0;stroke:#000000;stroke-width:13;stroke-linecap:round;stroke-linejoin:round" />
        <path
           d="m 374.35972,776.42843 c 53.716,-19.716 103.588,-49.036 155.248,-73.744 19.248,-9.206 40.066,-17.036 58,-28.246"
           id="path4971"
           inkscape:connector-curvature="0"
           style="fill-opacity:0;stroke:#000000;stroke-width:13;stroke-linecap:round;stroke-linejoin:round" />
        <path
           d="m 374.01972,778.14043 c -40.646,-2.998 -79.85,-17.618 -119.286,-27.476 -44.778,-11.194 -90.28,-19.318 -135.034,-30.826 -49.044,-12.612 -96.974,-29.27 -146.092,-41.55"
           id="path4973"
           inkscape:connector-curvature="0"
           style="fill-opacity:0;stroke:#000000;stroke-width:13;stroke-linecap:round;stroke-linejoin:round" />
        <path
           d="m 359.03572,823.29643 c 0.258,25.172 -1.756,50.622 0.88,75.682 1.24,11.78 5.172,23.374 5.868,35.2 0.264,4.508 4.08,32.076 7.334,34.026 6.056,3.636 44.732,-14.078 46.934,-18.48 0.572,-1.144 -8.61,-36.068 -9.388,-40.48 -3.488,-19.77 -7.276,-40.134 -9.094,-60.134 -0.706,-7.772 -0.84,-16.232 -2.346,-23.76"
           id="path4975"
           inkscape:connector-curvature="0"
           style="fill-opacity:0;stroke:#000000;stroke-width:13;stroke-linecap:round;stroke-linejoin:round" />
        <path
           d="m 319.72972,811.27043 c -1.476,39.026 0.612,77.622 5.866,116.162 0.866,6.344 1.426,26.778 4.694,31.68 2.878,4.316 35.32,9.88224 42.24,9.88224"
           id="path4977"
           inkscape:connector-curvature="0"
           style="fill-opacity:0;stroke:#000000;stroke-width:13;stroke-linecap:round;stroke-linejoin:round"
           sodipodi:nodetypes="cccc" />
        <path
           d="m -4.20228,770.92843 c -0.816,27.024 -5.116,53.44 -5.116,80.582 0,28.406 -0.15,54.076 2.984,82.288 0.564,5.072 0.578,11.822 6.396,12.792 3.058,0.508 37.684,-0.328 37.946,-0.854 2.816,-5.632 -4.15,-25.802 -4.69,-32.83 -2.942,-38.238 -5.53,-78.994 -1.28,-117.248 0.774,-6.96 -0.73,-23.146 4.264,-28.14"
           id="path4979"
           inkscape:connector-curvature="0"
           style="fill-opacity:0;stroke:#000000;stroke-width:13;stroke-linecap:round;stroke-linejoin:round" />
        <path
           d="m 41.84572,946.59043 c 5.54,-6.126 40.242,-27.522 41.782,-33.684 3.142,-12.568 -7.282,-36.198 -8.526,-49.884 -2.804,-30.83 -4.69,-61.4 -4.69,-92.52"
           id="path4981"
           inkscape:connector-curvature="0"
           style="fill-opacity:0;stroke:#000000;stroke-width:13;stroke-linecap:round;stroke-linejoin:round" />
        <path
           d="m 941.92972,218.35043 c 14.362,-5.884 37.11,-14.37 49.406,0.382 1.642,1.972 4.324,4.276 4.978,6.894 5.25798,21.03 -6.28,39.582 -27.192,44.81"
           id="path4983"
           inkscape:connector-curvature="0"
           style="fill-opacity:0;stroke:#000000;stroke-width:13;stroke-linecap:round;stroke-linejoin:round" />
        <path
           d="m 271.98268,169.33827 c -10.00009,4.37208 -12.0039,4.52105 -19.12655,9.70874 -0.51395,1.05082 -3.36869,1.90739 -2.99075,3.08472 1.56545,4.8765 12.56335,8.57912 18.05136,8.05553 1.7669,-0.16848 7.30046,-0.40066 5.73576,-1.83441 0.82213,0.45254 7.25719,1.88701 2.65862,-1.26754 0.0802,0.0456 -0.87343,1.45571 -0.42575,2.04173 0.41491,0.54308 1.21693,0.92694 1.87649,1.32335 4.30084,2.58327 9.23982,3.50129 14.16948,3.15112 4.8477,-0.34454 7.42211,-3.24593 8.76501,-6.0502 1.19421,-2.23296 -0.083,-2.63604 0.93599,-0.37872 0.31992,-2.3077 0.79108,-0.17623 2.31127,0.88315 3.41628,2.35236 7.23234,4.64036 11.68503,5.122 2.07156,0.22397 5.20325,6.6e-4 7.07327,-0.39547 3.81061,-0.80769 3.4682,-4.74337 2.68453,-7.1846 -0.0202,-0.0628 -3.20487,0.6452 2.1448,2.64986 1.69286,2.91711 -1.14973,-1.57592 -0.6813,-1.20032 1.20553,0.96724 4.01085,3.48952 5.42516,4.32693 6.57593,3.89374 22.36121,2.15635 23.17932,-3.69664 0.68383,-4.89334 -5.01392,-6.05028 -11.08192,-8.61373 -6.07329,-2.56576 -14.36252,-7.00315 -20.85679,-8.33905 -5.18725,-1.06668 -10.34359,-2.22089 -15.56039,-2.96185 -3.02171,-0.42911 -5.94372,-0.51037 -8.91362,-0.63029 -12.45338,-0.50212 -20.44103,-0.1285 -31.27278,2.64703 -2.39221,0.61278 -3.87891,2.84041 -5.92855,3.82614"
           id="path4871-8"
           inkscape:connector-curvature="0"
           style="fill:#b19c51;fill-opacity:1;stroke:#000000;stroke-width:5.30000019;stroke-linecap:round;stroke-linejoin:round;stroke-miterlimit:4;stroke-dasharray:none;stroke-opacity:1"
           sodipodi:nodetypes="ccscccccccccccscccccccccc" />
        <path
           d="m 313.7348,266.26325 c 0.10904,0.33326 0.21733,0.68088 0.18094,1.00619 -0.13327,1.20231 -0.6309,2.34103 -0.77614,3.54359 -0.37783,3.12292 -0.56974,6.27633 -0.65279,9.44923 -0.0866,3.29519 -0.8959,6.29836 -0.31714,9.62943 -1.35255,-0.54072 0.0912,1.79553 0.50281,2.00754 1.48409,0.76445 8.60754,0.83904 10.38054,0.96235 9.14783,0.63704 18.18361,0.26251 27.16308,0.26251 0.86858,0 3.68649,0.3025 4.3242,0 0.62549,-0.2966 -0.29702,-2.47024 -0.43091,-2.88733 -1.37547,-4.2847 -1.96038,-8.53686 -3.3347,-12.81798 -0.76254,-2.37538 -1.07237,-4.75743 -1.65148,-7.13076 -0.0922,-0.37915 -0.35726,-2.79375 -0.77041,-3.06241 -0.38124,-0.24816 -5.71239,-0.0154 -6.37955,0 -7.01924,0.16175 -14.41713,0.12612 -21.60535,-0.39376 -0.9173,-0.0664 -6.25136,-0.37838 -6.77517,-0.5686"
           id="path4877-8"
           inkscape:connector-curvature="0"
           style="fill:#d45500;stroke:#000000;stroke-width:5.30000019;stroke-miterlimit:4;stroke-dasharray:none;stroke-opacity:1"
           sodipodi:nodetypes="cccccscscssccccc" />
        <path
           d="m 322.47505,243.25314 0,0"
           id="path4883-0"
           inkscape:connector-curvature="0"
           style="fill:#fffcaf;stroke:#000000;stroke-width:5.30000019;stroke-miterlimit:4;stroke-dasharray:none;stroke-opacity:1" />
        <path
           d="m 337.52959,224.36819 0,0"
           id="path4885-0"
           inkscape:connector-curvature="0"
           style="fill:#fffcaf;stroke:#000000;stroke-width:5.30000019;stroke-miterlimit:4;stroke-dasharray:none;stroke-opacity:1" />
        <path
           style="fill:#ff8080;stroke:#000000;stroke-width:5.30000019;stroke-miterlimit:4;stroke-dasharray:none;stroke-opacity:1"
           inkscape:connector-curvature="0"
           id="path4891-8"
           d="m 329.6752,252.49288 c -1.72864,0.0299 -3.63346,-0.29746 -5.29534,-0.0839 -3.33073,0.42802 -6.53571,2.73662 -4.27155,5.11694 3.19303,3.3563 11.94372,2.60156 15.57666,1.40529 1.0026,-0.33026 1.64809,-0.90267 2.05105,-1.55193 1.28253,-2.06903 -3.11193,-4.08597 -6.34785,-4.73941 -1.65254,-0.3338 -3.27784,-0.31482 -4.89359,-0.31482" />
        <path
           style="fill-opacity:0;stroke:#000000;stroke-width:5.30000019;stroke-linecap:round;stroke-linejoin:round;stroke-miterlimit:4;stroke-dasharray:none;stroke-opacity:1"
           inkscape:connector-curvature="0"
           id="path4893-9"
           d="m 329.6752,252.49288 c -1.72864,0.0299 -3.63346,-0.29746 -5.29534,-0.0839 -3.33073,0.42802 -6.53571,2.73662 -4.27155,5.11694 3.19303,3.3563 11.94372,2.60156 15.57666,1.40529 1.0026,-0.33026 1.64809,-0.90267 2.05105,-1.55193 1.28253,-2.06903 -3.11193,-4.08597 -6.34785,-4.73941 -1.65254,-0.3338 -3.27784,-0.31482 -4.89359,-0.31482" />
        <path
           d="m 251.46177,181.62102 c 0.34478,0.72312 0.31992,1.50306 0.71231,2.21891 2.65316,4.84049 12.76913,6.8896 17.52852,5.82392 1.92647,-0.4311 2.94387,-0.15882 4.56432,-0.96088 0.005,-0.002 1.70135,-1.43476 1.73735,-1.42419 0.41317,0.11991 0.39958,1.09178 0.56601,1.33128 0.85478,1.22821 2.39924,2.03655 3.90332,2.66255 3.73768,1.55524 11.4919,2.18851 14.92827,1.60843 1.10075,-0.18565 2.21993,-0.77795 3.05499,-1.27578 2.02975,-1.20971 2.87334,-4.21581 3.39006,-4.54847 0.20147,-0.12949 0.28061,0.46281 0.49056,0.66564 0.66814,0.64549 1.72198,1.36134 2.54566,1.88592 2.39281,1.52419 5.86753,2.94929 8.64075,3.60567 4.21704,0.9983 10.06357,1.03496 12.00675,-1.66426 0.61756,-0.85789 0.73558,-3.70378 0.95296,-3.938 0.0509,-0.0548 2.64851,1.86313 2.85806,1.99659 2.04934,1.30518 4.86905,2.39431 7.23116,2.88454 4.02261,0.83477 8.55283,1.55921 12.34294,1.10929 1.66112,-0.19722 2.75842,-0.93223 3.8827,-1.71943 2.46736,-1.72835 3.56572,-3.56934 2.61036,-6.54539"
           id="path4899-6"
           inkscape:connector-curvature="0"
           style="fill-opacity:0;stroke:#000000;stroke-width:5.30000019;stroke-linecap:round;stroke-linejoin:round;stroke-miterlimit:4;stroke-dasharray:none;stroke-opacity:1"
           sodipodi:nodetypes="ccccccccccscccsscccc" />
        <path
           d="m 288.5918,222.78639 c -0.71101,-0.42812 -1.05106,-1.09409 -1.44137,-1.69035 -1.40294,-2.14524 -0.10533,-3.41441 2.20698,-1.94175 1.82007,1.15917 2.10344,4.46489 -0.46947,4.13554 -2.65678,-0.33992 -3.68722,-5.04992 -0.8448,-4.17155 1.83419,0.56687 2.60489,4.48703 0.52795,3.88383 -1.62187,-0.47107 -3.21648,-5.0605 -6e-4,-3.91983 0.76607,0.27187 1.17345,0.68479 1.43729,1.2586"
           id="path4901-2"
           inkscape:connector-curvature="0"
           style="fill-opacity:0;stroke:#000000;stroke-width:5.30000019;stroke-linecap:round;stroke-linejoin:round;stroke-miterlimit:4;stroke-dasharray:none;stroke-opacity:1" />
        <path
           d="m 349.1256,225.88175 c -0.93594,-0.65705 -1.77033,-1.46308 -2.233,-2.33749 -2.28863,-4.3245 4.78364,-3.7692 5.96157,1.07889 0.23542,0.96856 -1.56623,2.24996 -2.94965,1.72603 -2.55352,-0.96691 -4.37249,-5.50844 -0.70636,-4.99872 1.54712,0.21505 3.06721,3.26509 2.30315,3.95584 -1.61973,1.46374 -4.10081,-4.15438 -1.79002,-3.05665 2.06331,0.97979 1.30293,4.47777 0.18871,1.00688"
           id="path4903-7"
           inkscape:connector-curvature="0"
           style="fill-opacity:0;stroke:#000000;stroke-width:5.30000019;stroke-linecap:round;stroke-linejoin:round;stroke-miterlimit:4;stroke-dasharray:none;stroke-opacity:1" />
        <path
           d="m 318.58424,254.55934 c 0.29265,-1.97192 5.30398,-2.50156 8.0968,-2.5887 3.88746,-0.12091 9.36986,0.54732 10.94694,3.40132 0.28121,0.50906 0.57486,1.20463 0.3952,1.68571 -1.06472,2.84982 -7.96682,4.11876 -12.85159,3.28105 -3.91562,-0.67145 -8.67173,-5.16334 -6.22022,-6.24223"
           id="path4905-4"
           inkscape:connector-curvature="0"
           style="fill-opacity:0;stroke:#000000;stroke-width:5.30000019;stroke-linecap:round;stroke-linejoin:round;stroke-miterlimit:4;stroke-dasharray:none;stroke-opacity:1"
           sodipodi:nodetypes="cccccc" />
        <path
           d="m 312.63877,266.36605 c -0.13759,3.67459 1.22599,12.6595 -0.0523,20.05123"
           id="path4909-4"
           inkscape:connector-curvature="0"
           style="fill-opacity:0;stroke:#000000;stroke-width:5.30000019;stroke-linecap:round;stroke-linejoin:round;stroke-miterlimit:4;stroke-dasharray:none;stroke-opacity:1"
           sodipodi:nodetypes="cc" />
        <path
           d="m 312.52792,286.09428 c -0.41547,2.30233 -1.20419,2.72638 -0.89332,4.9318 0.0196,0.13869 -0.18019,1.27742 0.008,1.35766 1.07695,0.45887 3.37098,0.18662 4.47155,0.2261 5.23649,0.18791 10.37453,-0.11459 15.61672,0.11305 2.622,0.11408 5.27513,0.34583 7.90471,0.45247 3.67383,0.1492 8.95317,-0.22816 12.46368,0.18868 0.4845,0.0574 2.89227,0.40734 3.12736,0.2261 0.31252,-0.2402 -1.95182,-6.99233 -2.12674,-7.76754 -0.37123,-1.64426 -0.90021,-3.29467 -1.28034,-4.93944 -0.19399,-0.84111 -0.12395,-1.65811 -0.24894,-2.4887 -0.54602,-3.63023 -1.09846,-7.4189 -2.2635,-11.04811"
           id="path4911-1"
           inkscape:connector-curvature="0"
           style="fill-opacity:0;stroke:#000000;stroke-width:5.30000019;stroke-linecap:round;stroke-linejoin:round;stroke-miterlimit:4;stroke-dasharray:none;stroke-opacity:1"
           sodipodi:nodetypes="cccccccccccc" />
        <path
           inkscape:connector-curvature="0"
           id="path10021"
           d="m 209.4008,151.18154 c 0.2383,15.14732 -4.0473,29.85573 -2.9759,44.9354 0.375,15.04242 -3.8175,30.86855 2.8367,45.09979 2.2846,14.35129 3.4147,28.5215 3.8471,43.06106 0.6248,16.1112 2.6372,32.61075 6.4882,48.08022 1.1789,11.81725 8.6815,22.62963 7.8431,35.60986 -0.9349,8.4123 2.5798,16.1843 1.5686,24.52422 0,8.45204 0,16.90407 0,25.35611 -4.2278,7.80118 0.8857,21.27328 1.5684,28.2353"
           style="fill:none;fill-rule:evenodd;stroke:#000000;stroke-width:13;stroke-linecap:round;stroke-linejoin:round;stroke-miterlimit:4;stroke-dasharray:none;stroke-opacity:1" />
        <g
           style="stroke:#000000;stroke-width:14.35514927;stroke-miterlimit:4;stroke-dasharray:none;stroke-opacity:1"
           transform="matrix(0.41264195,0,0.10604551,0.33034135,-336.2966,146.23357)"
           id="g10214">
          <path
             style="fill:#332919;fill-opacity:1;fill-rule:evenodd;stroke:#000000;stroke-width:14.35514927;stroke-linecap:butt;stroke-linejoin:miter;stroke-miterlimit:4;stroke-dasharray:none;stroke-opacity:1"
             d="m 736.11927,609.97165 c -8.28166,30.41323 -30.95403,56.63315 -32.28364,89.81539 -1.97679,28.75605 -12.12626,61.47866 -21.91502,89.6904 -8.49559,33.15871 51.55374,34.37861 75.00679,34.24515 38.3285,-0.14769 75.63394,12.59963 114.19685,12.70195 51.58403,1.8828 102.68961,9.23949 154.37705,8.44596 27.5293,0.82026 63.5549,13.15068 84.2853,-11.36768 11.6194,-28.97766 -15.659,-54.4755 -19.7316,-82.63954 -15.7742,-34.95749 -7.2238,-78.149 -32.7003,-108.90369 -11.2632,-39.68608 -54.1689,-31.00765 -85.25969,-38.09054 -45.10281,-9.89118 -92.08224,-6.495 -136.67787,-19.37173 -34.34241,-1.4209 -63.23002,24.37814 -97.55581,24.12103 14.96595,-3.22763 -17.11196,7.12277 -1.74206,1.3533 z"
             id="path10081"
             inkscape:connector-curvature="0"
             sodipodi:nodetypes="ccccccccccccc" />
          <path
             d="m 777.37284,613.83965 c -12.745,9.987 -24.726,21.602 -33.043,35.332 -1.822,3.007 -4.234,5.694 -5.941,8.757 -14.895,26.743 -14.47897,58.55806 -9.94797,87.78606 4.192,27.038 16.56837,52.06112 30.92415,72.20797 15.12213,21.22232 39.32279,46.72492 63.60982,48.69328 10.964,4.681 22.131,5.54069 33.726,8.59969 22.797,6.015 50.589,9.999 74.228,8.239 7.437,-0.554 15.013,-2.583 22.257,-4.242 5.734,-1.314 11.656,-2.363 17.177,-4.393 14.875,-5.468 27.977,-13.913 40.17396,-23.596 8.089,-6.42 15.621,-12.975 22.152,-20.957 21.094,-25.783 32.8143,-52.283 35.5383,-84.623 0.761,-9.027 -1.5753,-18.582 -2.3213,-27.637 -0.604,-7.319 -3.124,-14.335 -4.751,-21.462 -3.252,-14.247 -7.489,-29.64 -17.331,-41.139 -5.203,-6.079 -23.928,-18.206 -31.346,-22.246 -6.468,-3.523 -12.69696,-7.312 -19.43296,-10.37 -21.786,-9.89 -56.321,-15.323 -80.24,-17.348 -32.399,-2.743 -65.136,-4.721 -97.236,1.168 -9.956,1.827 -19.417,2.903 -28.907,6.64 -3.669,1.444 -6.537,3.909 -10.031,5.467"
             id="path10045"
             inkscape:connector-curvature="0"
             style="fill:#ffe2b3;fill-opacity:1;stroke:#000000;stroke-width:14.35514927;stroke-miterlimit:4;stroke-dasharray:none;stroke-opacity:1"
             sodipodi:nodetypes="ccccsccccccccccsccsccc" />
          <path
             d="m 851.32776,877.8882 c 0.005,1.00884 -0.003,2.06114 -0.34428,3.04592 -1.25832,3.63958 -3.35016,7.0867 -4.63767,10.72706 -3.34513,9.45359 -6.26343,18.99953 -8.93308,28.60444 11.49215,-27.61334 -2.68739,-1.70334 -6.56292,23.82228 3.00185,2.31412 19.132,-1.07621 23.33278,-0.70294 26.47371,-8.08555 36.89299,-5.88134 60.23484,-11.16649 2.19469,-0.49693 20.45977,-3.25677 22.24054,-4.17249 1.74656,-0.89786 -4.07104,-7.75599 -4.07104,-9.01859 0,-12.97055 -0.17491,5.59021 -0.17491,-7.36949 0,-7.19069 1.10229,-14.40155 1.54522,-21.58603 0.0715,-1.14775 1.30764,-8.45717 0.5154,-9.27045 -0.73083,-0.7512 -13.83147,-0.0466 -15.46024,0 -17.13634,0.48967 -35.03672,0.38181 -52.05226,-1.19198 -2.17136,-0.20099 -14.85525,-1.14542 -15.97666,-1.72124"
             id="path10049"
             inkscape:connector-curvature="0"
             style="fill:#8edae1;fill-opacity:1;stroke:#000000;stroke-width:14.35514927;stroke-miterlimit:4;stroke-dasharray:none;stroke-opacity:1"
             sodipodi:nodetypes="ccccccscssccccc" />
          <path
             d="m 890.40984,808.23265 0,0"
             id="path10051"
             inkscape:connector-curvature="0"
             style="fill:#fffcaf;stroke:#000000;stroke-width:14.35514927;stroke-miterlimit:4;stroke-dasharray:none;stroke-opacity:1" />
          <path
             d="m 941.58484,751.06465 0,0"
             id="path10053"
             inkscape:connector-curvature="0"
             style="fill:#fffcaf;stroke:#000000;stroke-width:14.35514927;stroke-miterlimit:4;stroke-dasharray:none;stroke-opacity:1" />
          <path
             sodipodi:nodetypes="ccccccccc"
             inkscape:connector-curvature="0"
             id="path10073"
             d="m 798.82226,554.55716 c -40.0165,-5.42974 -41.17745,18.63764 -65.36031,48.92909 -11.03635,30.42606 27.51203,42.62753 46.838,23.7265 23.93345,13.45256 50.27682,31.3569 68.92636,-2.40206 32.16037,-25.52526 51.76033,34.2582 86.63967,5.96462 31.83207,15.10057 79.87562,22.88587 107.56312,-6.41837 15.3152,-48.68377 -40.4982,-71.67254 -80.02592,-63.14709 -37.56994,0.65747 -72.21429,-21.18397 -110.60358,-10.36579 -3.74406,2.82436 -27.75671,-0.0902 -53.97734,3.7131 z"
             style="fill:#332919;fill-opacity:1;fill-rule:evenodd;stroke:#000000;stroke-width:14.35514927;stroke-linecap:round;stroke-linejoin:round;stroke-miterlimit:4;stroke-dasharray:none;stroke-opacity:1" />
          <path
             style="fill:#ff809f;fill-opacity:1;stroke:#000000;stroke-width:14.35514927;stroke-miterlimit:4;stroke-dasharray:none;stroke-opacity:1"
             inkscape:connector-curvature="0"
             id="path10055"
             d="m 895.79151,826.34063 c -2.46046,0.0959 -5.00798,-0.95385 -7.45739,-0.26915 -4.90912,1.37251 -10.49479,8.77535 -8.37148,16.40814 2.99461,10.76243 15.72411,8.34225 21.41011,4.50627 1.56924,-1.05903 2.74303,-2.89453 3.60844,-4.97649 2.75557,-6.6346 -2.54826,-13.10217 -6.83176,-15.19753 -2.18749,-1.07036 -4.49671,-1.00952 -6.7838,-1.00952" />
          <path
             style="fill-opacity:0;stroke:#000000;stroke-width:14.35514927;stroke-linecap:round;stroke-linejoin:round;stroke-miterlimit:4;stroke-dasharray:none;stroke-opacity:1"
             inkscape:connector-curvature="0"
             id="path10057"
             d="m 895.79151,826.34063 c -2.46046,0.0959 -5.00798,-0.95385 -7.45739,-0.26915 -4.90912,1.37251 -10.49479,8.77535 -8.37148,16.40814 2.99461,10.76243 15.72411,8.34225 21.41011,4.50627 1.56924,-1.05903 2.74303,-2.89453 3.60844,-4.97649 2.75557,-6.6346 -2.54826,-13.10217 -6.83176,-15.19753 -2.18749,-1.07036 -4.49671,-1.00952 -6.7838,-1.00952" />
          <path
             d="m 750.7756,636.50252 c -14.077,14.077 -13.12076,19.43913 -18.77776,38.67513 -8.005,27.213 -8.063,72.233 0.948,99.266 6.581,19.744 26.234,49.99 42.046,63.543 4.782,4.099 8.099,9.511 13.277,13.277 15.564,11.319 33.773,18.121 52.479,22.13 7.39,1.583 14.603,5.003 22.129,6.006 4.753,0.634 9.488,1.582 14.226,2.529 7.162,1.433 15.163,0.949 22.446,0.949 19.844,0 39.137,-0.02 58.168,-6.639 3.506,-1.219 6.876,-2.978 10.433,-4.11 3.466,-1.103 6.749,-2.034 10.116,-3.477 32.07996,-13.749 74.17096,-57.313 84.72396,-90.731 5.598,-17.726 6.849,-37.738 5.69,-56.272 -0.961,-15.375 -15.045,-50.197 -24.342,-62.594 -8.568,-11.424 -8.6723,-13.11035 -21.2503,-20.85135"
             id="path10059"
             inkscape:connector-curvature="0"
             style="fill-opacity:0;stroke:#000000;stroke-width:14.35514927;stroke-linecap:round;stroke-linejoin:round;stroke-miterlimit:4;stroke-dasharray:none;stroke-opacity:1"
             sodipodi:nodetypes="ccccccccscsccccc" />
          <path
             d="m 824.21916,746.27629 c -1.39,-1.296 -1.696,-3.312 -2.178,-5.117 -1.731,-6.494 2.401,-10.336 6.859,-5.878 3.509,3.509 1.624,13.516 -4.355,12.519 -6.174,-1.029 -5.007,-15.287 1.198,-12.628 4.004,1.716 2.822,13.583 -1.742,11.757 -3.564,-1.426 -3.858,-15.319 3.048,-11.866 1.645,0.823 2.311,2.073 2.504,3.81"
             id="path10063"
             inkscape:connector-curvature="0"
             style="fill-opacity:0;stroke:#000000;stroke-width:14.35514927;stroke-linecap:round;stroke-linejoin:round;stroke-miterlimit:4;stroke-dasharray:none;stroke-opacity:1" />
          <path
             d="m 968.50922,755.64647 c -1.757,-1.989 -3.152,-4.429 -3.593,-7.076 -2.182,-13.091 14.525,-11.41 13.608,3.266 -0.183,2.932 -5.546,6.811 -8.491,5.225 -5.436,-2.927 -6.311,-16.675 2.177,-15.132 3.582,0.651 4.893,9.884 2.504,11.975 -5.064,4.431 -6.706,-12.576 -1.96,-9.253 4.238,2.966 -0.326,13.555 -0.326,3.048"
             id="path10065"
             inkscape:connector-curvature="0"
             style="fill-opacity:0;stroke:#000000;stroke-width:14.35514927;stroke-linecap:round;stroke-linejoin:round;stroke-miterlimit:4;stroke-dasharray:none;stroke-opacity:1" />
          <path
             d="m 879.15331,832.96699 c 1.31029,-6.3232 8.64447,-8.02156 12.63728,-8.30101 5.55763,-0.38772 13.01428,1.75508 13.94977,10.9068 0.16674,1.63236 0.26634,3.8628 -0.20657,5.40544 -2.80206,9.13832 -13.14856,13.20736 -19.68226,10.52113 -5.23743,-2.1531 -9.92857,-16.55694 -5.96822,-20.01655"
             id="path10067"
             inkscape:connector-curvature="0"
             style="fill-opacity:0;stroke:#000000;stroke-width:14.35514927;stroke-linecap:round;stroke-linejoin:round;stroke-miterlimit:4;stroke-dasharray:none;stroke-opacity:1"
             sodipodi:nodetypes="cccccc" />
          <path
             d="m 848.59166,878.19939 c -3.19211,11.12361 -6.87749,38.3225 -15.72582,60.69852"
             id="path10069"
             inkscape:connector-curvature="0"
             style="fill-opacity:0;stroke:#000000;stroke-width:14.35514927;stroke-linecap:round;stroke-linejoin:round;stroke-miterlimit:4;stroke-dasharray:none;stroke-opacity:1"
             sodipodi:nodetypes="cc" />
          <path
             d="m 832.97529,937.92015 c -2.79796,6.96952 -1.92741,-3.85547 -2.88977,2.82071 -0.0604,0.41983 -1.43046,3.86695 -1.03686,4.10985 2.2529,1.38909 8.02407,0.56495 10.6605,0.68446 12.54396,0.56883 25.23087,-0.34689 37.75772,0.34223 6.26544,0.34533 12.51477,1.04686 18.80436,1.36969 8.78712,0.45165 21.87468,-0.69067 30.0578,0.57116 1.12947,0.17383 6.69226,1.23311 7.40296,0.68446 0.94424,-0.72714 -2.40214,-9.05829 -2.22296,-11.40501 0.37951,-4.97745 0.38153,-9.97353 0.7399,-14.95253 0.18422,-2.54616 0.98954,-5.01936 1.33281,-7.5337 1.50093,-10.98935 3.10957,-22.45829 3.10957,-33.44454"
             id="path10071"
             inkscape:connector-curvature="0"
             style="fill-opacity:0;stroke:#000000;stroke-width:14.35514927;stroke-linecap:round;stroke-linejoin:round;stroke-miterlimit:4;stroke-dasharray:none;stroke-opacity:1"
             sodipodi:nodetypes="cccccccccccc" />
        </g>
        <g
           style="stroke:#000000;stroke-width:14.35514927;stroke-miterlimit:4;stroke-dasharray:none;stroke-opacity:1"
           transform="matrix(0.41264195,0,0.10604551,0.33034135,-30.937,-66.835993)"
           id="g10246">
          <path
             d="m -6.910266,785.36125 c -12.745,9.987 -24.726,21.602 -33.043,35.332 -1.822,3.007 -4.234,5.694 -5.941,8.757 -14.895,26.743 -14.47897,58.55806 -9.94797,87.78606 4.192,27.038 16.56837,52.06112 30.92415,72.20797 15.12213,21.22232 39.32279,46.72492 63.60982,48.69332 10.964,4.681 22.131,5.5406 33.726,8.5996 22.797,6.015 50.588996,9.999 74.227996,8.239 7.437,-0.554 15.013,-2.583 22.257,-4.242 5.734,-1.314 11.656,-2.363 17.177,-4.393 14.875,-5.468 27.977,-13.913 40.174,-23.596 8.089,-6.42 15.621,-12.975 22.152,-20.957 21.094,-25.78295 32.81425,-52.28295 35.53825,-84.62295 0.761,-9.027 -1.57525,-18.582 -2.32125,-27.637 -0.604,-7.319 -3.124,-14.335 -4.751,-21.462 -3.252,-14.247 -7.489,-29.64 -17.331,-41.139 -5.203,-6.079 -23.928,-18.206 -31.346,-22.246 -6.468,-3.523 -12.697,-7.312 -19.433,-10.37 -21.786,-9.89 -56.321,-15.323 -80.24,-17.348 -32.398996,-2.743 -65.135996,-4.721 -97.235996,1.168 -9.956,1.827 -19.417,2.903 -28.907,6.64 -3.669,1.444 -6.537,3.909 -10.031,5.467"
             id="path10086"
             inkscape:connector-curvature="0"
             style="fill:#ac9683;fill-opacity:1;stroke:#000000;stroke-width:14.35514927;stroke-miterlimit:4;stroke-dasharray:none;stroke-opacity:1"
             sodipodi:nodetypes="ccccsccccccccccsccsccc" />
          <path
             d="m 41.265734,756.00125 c -27.63558,13.23504 -28.934291,-10.19005 -50.2311809,5.51398 -2.0630001,3.181 -13.3208191,29.65002 -13.3208191,33.21402 0,14.762 23.77194,25.97046 37.47894,24.38546 4.413,-0.51 18.0037,-1.21285 15.32718,-5.55306 1.64032,1.3699 16.11912,5.71231 7.42903,-3.83706 0.159,0.138 -3.24915,4.40666 -2.62015,6.18066 0.583,1.644 2.228,2.806 3.518,4.006 8.413,7.82 19.668,10.599 31.887,9.539 12.016,-1.043 20.512,-9.826 25.948,-18.315 4.631196,-6.75956 1.84948,-7.97974 2.56291,-1.14645 2.570586,-6.9858 2.054196,-0.53348 4.914086,2.67345 6.449,7.121 13.91691,14.04715 24.33291,15.50515 4.846,0.678 12.60909,0.002 17.44909,-1.19715 9.863,-2.445 12.095,-14.359 12.095,-21.749 0,-0.19 -8.26864,1.95312 3.13625,8.02158 1.83312,8.83059 -1.56025,-4.77058 -0.71725,-3.63358 2.169,2.928 7.00521,10.56337 9.78121,13.09837 12.907,11.787 52.51279,6.52763 59.04879,-11.19037 10.63471,-19.04358 12.44192,-34.58548 -20.15491,-26.07526 7.05905,-29.06967 -17.77244,-33.6766 -44.05709,-25.24374 1.84494,-32.09912 -18.17352,-17.69965 -35.405,-8.966 -6.989,-1.299 -14.007,-1.545 -21.111,-1.908 -39.643472,-40.9379 -53.806394,-17.86659 -77.845996,8.013 -6.274,1.855 -11.60988,8.5984 -17.34388,11.5824"
             id="path10088"
             inkscape:connector-curvature="0"
             style="fill:#75634d;fill-opacity:1;stroke:#000000;stroke-width:14.35514927;stroke-linecap:round;stroke-linejoin:round;stroke-miterlimit:4;stroke-dasharray:none;stroke-opacity:1"
             sodipodi:nodetypes="ccscccccccccccscccccccccc" />
          <path
             d="m 67.044654,1049.4098 c 0.005,1.0088 -0.003,2.0611 -0.34428,3.0459 -1.25832,3.6396 -3.35016,7.0867 -4.63767,10.7271 -3.34513,9.4536 -6.26343,18.9995 -8.93308,28.6044 -2.77335,9.9751 -7.07098,19.0662 -8.25984,29.1499 -2.85712,-1.6368 -1.17578,5.4354 -0.34327,6.0772 3.00185,2.3141 20.20685,2.5399 24.40763,2.9132 21.67334,1.9284 43.862086,0.7947 65.623006,0.7947 2.10492,0 8.69853,0.9157 10.4793,0 1.74656,-0.8979 1.20195,-7.4779 1.20195,-8.7405 0,-12.9705 1.89051,-25.8425 1.89051,-38.8022 0,-7.1907 1.10229,-14.4016 1.54522,-21.586 0.0715,-1.1478 1.30764,-8.4572 0.5154,-9.2705 -0.73083,-0.7512 -13.83147,-0.047 -15.46024,0 -17.13634,0.4897 -35.036716,0.3818 -52.052256,-1.192 -2.17136,-0.201 -14.85525,-1.1454 -15.97666,-1.7212"
             id="path10090"
             inkscape:connector-curvature="0"
             style="fill:#d4a800;fill-opacity:1;stroke:#000000;stroke-width:14.35514927;stroke-miterlimit:4;stroke-dasharray:none;stroke-opacity:1"
             sodipodi:nodetypes="cccccscscssccccc" />
          <path
             d="m 106.12673,979.75425 0,0"
             id="path10092"
             inkscape:connector-curvature="0"
             style="fill:#fffcaf;stroke:#000000;stroke-width:14.35514927;stroke-miterlimit:4;stroke-dasharray:none;stroke-opacity:1" />
          <path
             d="m 157.30173,922.58625 0,0"
             id="path10094"
             inkscape:connector-curvature="0"
             style="fill:#fffcaf;stroke:#000000;stroke-width:14.35514927;stroke-miterlimit:4;stroke-dasharray:none;stroke-opacity:1" />
          <path
             style="fill:#ff8080;stroke:#000000;stroke-width:14.35514927;stroke-miterlimit:4;stroke-dasharray:none;stroke-opacity:1"
             inkscape:connector-curvature="0"
             id="path10096"
             d="m 119.90183,1007.3381 c -4.7271,0.076 -9.62143,-0.7503 -14.32727,-0.2117 -9.4315,1.0797 -20.162778,6.9036 -16.083448,12.9083 5.753305,8.4669 30.209438,6.563 41.133488,3.5452 3.01485,-0.8332 5.26996,-2.2772 6.93261,-3.9151 5.29405,-5.2194 -4.89577,-10.3075 -13.12531,-11.956 -4.20264,-0.8421 -8.63917,-0.7941 -13.03316,-0.7941" />
          <path
             style="fill-opacity:0;stroke:#000000;stroke-width:14.35514927;stroke-linecap:round;stroke-linejoin:round;stroke-miterlimit:4;stroke-dasharray:none;stroke-opacity:1"
             inkscape:connector-curvature="0"
             id="path10098"
             d="m 119.90183,1007.3381 c -4.7271,0.076 -9.62143,-0.7503 -14.32727,-0.2117 -9.4315,1.0797 -20.162778,6.9036 -16.083448,12.9083 5.753305,8.4669 30.209438,6.563 41.133488,3.5452 3.01485,-0.8332 5.26996,-2.2772 6.93261,-3.9151 5.29405,-5.2194 -4.89577,-10.3075 -13.12531,-11.956 -4.20264,-0.8421 -8.63917,-0.7941 -13.03316,-0.7941" />
          <path
             d="M 110.20673,747.43325 C 75.954186,712.71926 52.979456,725.53049 35.312328,758.8382 c -4.320379,8.14518 0.337046,0.62656 -7.871708,5.24388 -10.337317,-5.00499 -43.890374,-18.87577 -45.780125,28.40772 -0.216224,5.41013 -3.325674,4.95456 -6.515289,9.83337 -8.537987,13.05964 -23.312035,30.37179 -27.430472,44.37608 -8.005,27.213 -8.063,72.233 0.948,99.266 6.581,19.744 26.234,49.99 42.046,63.54295 4.782,4.099 8.099,9.511 13.277,13.277 15.564,11.319 33.773,18.121 52.479,22.13 7.39,1.583 14.603,5.003 22.129,6.006 4.753,0.634 9.488,1.582 14.226,2.529 7.162,1.433 15.162996,0.949 22.445996,0.949 19.844,0 39.137,-0.02 58.168,-6.639 3.506,-1.219 6.876,-2.978 10.433,-4.11 3.466,-1.103 6.749,-2.034 10.116,-3.477 32.08,-13.749 74.171,-57.31295 84.724,-90.73095 5.598,-17.726 6.849,-37.738 5.69,-56.272 -0.961,-15.375 -15.045,-50.197 -24.342,-62.594 -4.23166,-5.64221 -30.96467,-10.96132 -26.67901,-25.36509 8.41193,-28.2719 -19.5836,-20.32043 -25.94944,-24.23822 3.05898,-13.25428 -7.0787,-36.68567 -44.25951,-18.75717 5.68657,-24.52785 -4.68853,-28.77993 -31.62133,-11.65821 -7.93997,5.04759 -18.54062,-3.36528 -28.09114,-3.36528"
             id="path10100"
             inkscape:connector-curvature="0"
             style="fill-opacity:0;stroke:#000000;stroke-width:14.35514927;stroke-linecap:round;stroke-linejoin:round;stroke-miterlimit:4;stroke-dasharray:none;stroke-opacity:1"
             sodipodi:nodetypes="cscsscccccccscsccccsccsc" />
          <path
             d="m -18.020266,793.18325 c 0.273,2.189 -0.394,4.55 0,6.717 2.664,14.653 25.585,20.856 37.948,17.63 5.004,-1.305 7.25775,-0.48075 11.80875,-2.90875 0.014,-0.007 5.23925,-4.34325 5.31825,-4.31125 0.908,0.363 0.119,3.305 0.336,4.03 1.116,3.718 4.23,6.165 7.388,8.06 7.848,4.708 26.147,6.625 34.926,4.869 8.564499,-1.75554 14.288014,-9.73106 20.15,-17.631 0.588996,-0.392 0.319996,1.401 0.670996,2.015 5.67518,8.06523 14.38466,13.81896 22.837,16.624 9.443,3.022 23.583,3.133 30.392,-5.038 2.164,-2.597 4.664,-11.212 5.373,-11.921 0.166,-0.166 4.969,5.64 5.373,6.044 3.951,3.951 9.937,7.248 15.28,8.732 9.099,2.527 19.514,4.72 29.049,3.358 4.179,-0.597 7.41,-2.822 10.747,-5.205 7.324,-5.232 11.418,-10.805 11.418,-19.814"
             id="path10102"
             inkscape:connector-curvature="0"
             style="fill-opacity:0;stroke:#000000;stroke-width:14.35514927;stroke-linecap:round;stroke-linejoin:round;stroke-miterlimit:4;stroke-dasharray:none;stroke-opacity:1"
             sodipodi:nodetypes="ccccccccccccsscccc" />
          <path
             d="m 39.511331,929.47396 c -1.423273,-1.59827 -1.736598,-4.08447 -2.230136,-6.31045 -1.772435,-8.00862 2.458474,-12.7467 7.023186,-7.24895 3.592996,4.32742 1.662874,16.66838 -4.459247,15.43885 -6.321788,-1.269 -5.126853,-18.85243 1.226677,-15.57327 4.099845,2.11623 2.889551,16.75101 -1.783698,14.49912 -3.649313,-1.75859 -3.95035,-18.89189 3.12096,-14.63354 1.684377,1.01495 2.366319,2.55649 2.563939,4.69862"
             id="path10104"
             inkscape:connector-curvature="0"
             style="fill-opacity:0;stroke:#000000;stroke-width:14.35514927;stroke-linecap:round;stroke-linejoin:round;stroke-miterlimit:4;stroke-dasharray:none;stroke-opacity:1" />
          <path
             d="m 178.0722,930.92817 c -1.79906,-2.4529 -3.22746,-5.46199 -3.67901,-8.72636 -2.23423,-16.14425 14.87269,-14.07119 13.93374,4.02774 -0.18738,3.61584 -5.67876,8.39955 -8.69425,6.44364 -5.56613,-3.60967 -6.46207,-20.56416 2.22911,-18.66128 3.66774,0.80283 5.01012,12.18927 2.56394,14.76796 -5.18522,5.46446 -6.86653,-15.50913 -2.00692,-11.4111 4.33944,3.65777 -0.3338,16.71647 -0.3338,3.75889"
             id="path10106"
             inkscape:connector-curvature="0"
             style="fill-opacity:0;stroke:#000000;stroke-width:14.35514927;stroke-linecap:round;stroke-linejoin:round;stroke-miterlimit:4;stroke-dasharray:none;stroke-opacity:1" />
          <path
             d="m 87.936225,1012.551 c 2.517338,-4.9744 16.607895,-6.3105 24.278955,-6.5303 10.67741,-0.305 25.00327,1.3808 26.80056,8.5804 0.32033,1.2842 0.51169,3.0388 -0.39688,4.2525 -5.38336,7.1891 -25.26124,10.3902 -37.8139,8.2769 -10.062248,-1.6938 -19.074946,-13.0253 -11.466248,-15.747"
             id="path10108"
             inkscape:connector-curvature="0"
             style="fill:#c37791;fill-opacity:1;stroke:#000000;stroke-width:14.35514927;stroke-linecap:round;stroke-linejoin:round;stroke-miterlimit:4;stroke-dasharray:none;stroke-opacity:1"
             sodipodi:nodetypes="cccccc" />
          <path
             d="m 64.308554,1049.721 c -3.19211,11.1236 -6.87749,38.3225 -15.72582,60.6985"
             id="path10110"
             inkscape:connector-curvature="0"
             style="fill-opacity:0;stroke:#000000;stroke-width:14.35514927;stroke-linecap:round;stroke-linejoin:round;stroke-miterlimit:4;stroke-dasharray:none;stroke-opacity:1"
             sodipodi:nodetypes="cc" />
          <path
             d="m 48.692184,1109.4417 c -2.79796,6.9696 -5.03924,8.2533 -6.0016,14.9294 -0.0604,0.4199 -1.43046,3.867 -1.03686,4.1099 2.2529,1.3891 8.02407,0.5649 10.6605,0.6845 12.54396,0.5688 25.23087,-0.3469 37.75772,0.3422 6.26544,0.3453 12.514766,1.0468 18.804356,1.3697 8.78712,0.4516 21.87468,-0.6907 30.0578,0.5711 1.12947,0.1739 6.69226,1.2331 7.40296,0.6845 0.94424,-0.7271 0.70969,-21.167 0.88887,-23.5137 0.37951,-4.9775 0.38153,-9.9735 0.7399,-14.9525 0.18422,-2.5462 0.98954,-5.0194 1.33281,-7.5337 1.50093,-10.9894 3.10957,-22.4583 3.10957,-33.4446"
             id="path10112"
             inkscape:connector-curvature="0"
             style="fill-opacity:0;stroke:#000000;stroke-width:14.35514927;stroke-linecap:round;stroke-linejoin:round;stroke-miterlimit:4;stroke-dasharray:none;stroke-opacity:1"
             sodipodi:nodetypes="cccccccccccc" />
        </g>
        <g
           style="stroke:#000000;stroke-width:14.35514927;stroke-miterlimit:4;stroke-dasharray:none;stroke-opacity:1"
           transform="matrix(0.38567792,0,0.09911598,0.30031226,-147.28357,-108.5279)"
           id="g10197">
          <path
             d="m 693.27171,1437.7572 c -12.745,9.987 -24.726,21.602 -33.043,35.332 -1.822,3.007 -4.234,5.694 -5.941,8.757 -14.895,26.743 -14.47897,58.5581 -9.94797,87.7861 4.192,27.038 16.56837,52.0611 30.92415,72.2079 15.12213,21.2224 39.32279,46.725 63.60982,48.6933 10.964,4.681 22.131,5.5407 33.726,8.5997 22.797,6.015 50.589,9.999 74.228,8.239 7.437,-0.554 15.013,-2.583 22.257,-4.242 5.734,-1.314 11.656,-2.363 17.177,-4.393 14.875,-5.468 27.977,-13.913 40.174,-23.596 8.089,-6.42 15.621,-12.975 22.152,-20.957 21.094,-25.783 32.81425,-52.283 35.53825,-84.623 0.761,-9.027 -1.57525,-18.582 -2.32125,-27.637 -0.604,-7.319 -3.124,-14.335 -4.751,-21.462 -3.252,-14.247 -7.489,-29.64 -17.331,-41.139 -5.203,-6.079 -23.928,-18.206 -31.346,-22.246 -6.468,-3.523 -12.697,-7.312 -19.433,-10.37 -21.786,-9.89 -56.321,-15.323 -80.24,-17.348 -32.399,-2.743 -65.136,-4.721 -97.236,1.168 -9.956,1.827 -19.417,2.903 -28.907,6.64 -3.669,1.444 -6.537,3.909 -10.031,5.467"
             id="path10147"
             inkscape:connector-curvature="0"
             style="fill:#f8e1cf;fill-opacity:1;stroke:#000000;stroke-width:14.35514927;stroke-miterlimit:4;stroke-dasharray:none;stroke-opacity:1"
             sodipodi:nodetypes="ccccsccccccccccsccsccc" />
          <path
             d="m 764.83521,1702.086 c 0.006,1.002 -0.003,2.0472 -0.41894,3.0253 -1.53114,3.6151 -4.07653,7.039 -5.64319,10.6547 -4.07041,9.39 -7.62146,18.8716 -10.86994,28.4118 -3.37466,9.9079 -12.74414,27.5724 -14.19077,37.5882 -3.47659,-1.6258 -2.22796,6.6322 -1.21494,7.2697 3.6527,2.2985 31.91712,-11.046 37.0287,-10.6752 31.95805,-4.869 -1.61347,-4.9341 74.36738,-15.2466 2.6381,-0.3581 13.61504,-3.4078 15.78191,-4.3174 2.12525,-0.8917 7.66313,-24.0799 7.66313,-25.334 0,-12.8831 -3.83854,15.038 -3.83854,2.1656 0,-7.1422 1.34129,-14.3045 1.88026,-21.4406 0.087,-1.14 1.59115,-8.4001 0.62714,-9.208 -0.88929,-0.7461 -16.83039,-0.047 -18.8123,0 -20.85181,0.4865 -42.63332,0.3793 -63.33814,-1.1839 -2.64215,-0.1996 -18.07614,-1.1377 -19.4407,-1.7096"
             id="path10151"
             inkscape:connector-curvature="0"
             style="fill:#a0ad5c;fill-opacity:1;stroke:#000000;stroke-width:14.35514927;stroke-miterlimit:4;stroke-dasharray:none;stroke-opacity:1"
             sodipodi:nodetypes="cccccscscssccccc" />
          <path
             d="m 806.30871,1632.1502 0,0"
             id="path10153"
             inkscape:connector-curvature="0"
             style="fill:#fffcaf;stroke:#000000;stroke-width:14.35514927;stroke-miterlimit:4;stroke-dasharray:none;stroke-opacity:1" />
          <path
             d="m 857.48371,1574.9822 0,0"
             id="path10155"
             inkscape:connector-curvature="0"
             style="fill:#fffcaf;stroke:#000000;stroke-width:14.35514927;stroke-miterlimit:4;stroke-dasharray:none;stroke-opacity:1" />
          <path
             style="fill:#c76969;fill-opacity:1;stroke:#000000;stroke-width:14.35514927;stroke-miterlimit:4;stroke-dasharray:none;stroke-opacity:1"
             inkscape:connector-curvature="0"
             id="path10157"
             d="m 816.56951,1660.1205 c -4.21246,0.091 -8.57396,-0.9005 -12.76748,-0.2541 -8.40471,1.2957 -17.96769,8.2842 -14.33247,15.4899 5.12695,10.1601 26.92059,7.8753 36.65535,4.254 2.68663,-0.9997 4.69623,-2.7325 6.17786,-4.6979 4.7177,-6.2633 -4.36277,-12.3689 -11.69637,-14.347 -3.74511,-1.0105 -7.69863,-0.9531 -11.61426,-0.9531" />
          <path
             style="fill-opacity:0;stroke:#000000;stroke-width:14.35514927;stroke-linecap:round;stroke-linejoin:round;stroke-miterlimit:4;stroke-dasharray:none;stroke-opacity:1"
             inkscape:connector-curvature="0"
             id="path10159"
             d="m 816.56951,1660.1205 c -4.21246,0.091 -8.57396,-0.9005 -12.76748,-0.2541 -8.40471,1.2957 -17.96769,8.2842 -14.33247,15.4899 5.12695,10.1601 26.92059,7.8753 36.65535,4.254 2.68663,-0.9997 4.69623,-2.7325 6.17786,-4.6979 4.7177,-6.2633 -4.36277,-12.3689 -11.69637,-14.347 -3.74511,-1.0105 -7.69863,-0.9531 -11.61426,-0.9531" />
          <path
             d="m 810.38871,1399.8292 c -35.151,-1.121 -69.424,5.758 -100.214,23.077 -8.967,5.044 -17.322,10.051 -24.659,17.388 -14.077,14.077 -31.962,39.565 -37.619,58.801 -8.005,27.213 -8.063,72.233 0.948,99.266 6.581,19.744 26.234,49.99 42.046,63.543 4.782,4.099 8.099,9.511 13.277,13.277 15.564,11.319 33.773,18.121 52.479,22.13 7.39,1.583 14.603,5.003 22.129,6.006 4.753,0.634 9.488,1.582 14.226,2.529 7.162,1.433 15.163,0.949 22.446,0.949 19.844,0 39.137,-0.02 58.168,-6.639 3.506,-1.219 6.876,-2.978 10.433,-4.11 3.466,-1.103 6.749,-2.034 10.116,-3.477 32.08,-13.749 74.171,-57.313 84.724,-90.731 5.598,-17.726 6.849,-37.738 5.69,-56.272 -0.961,-15.375 -15.045,-50.197 -24.342,-62.594 -8.568,-11.424 -44.642,-40.944 -57.22,-48.685 -7.909,-4.867 -16.67,-8.176 -24.975,-12.329 -18.623,-9.311 -53.46843,-22.37 -74.40543,-22.37"
             id="path10161"
             inkscape:connector-curvature="0"
             style="fill-opacity:0;stroke:#000000;stroke-width:14.35514927;stroke-linecap:round;stroke-linejoin:round;stroke-miterlimit:4;stroke-dasharray:none;stroke-opacity:1"
             sodipodi:nodetypes="ccscccccccscsccccccc" />
          <path
             d="m 745.67027,1554.7617 c -1.20759,-0.8779 -1.47344,-2.2435 -1.89218,-3.4662 -1.50383,-4.3991 2.08591,-7.0016 5.95887,-3.9818 3.04851,2.377 1.41088,9.1557 -3.78348,8.4804 -5.36376,-0.6971 -4.34991,-10.3554 1.04078,-8.5542 3.47855,1.1624 2.45166,9.2011 -1.51339,7.9642 -3.09628,-0.966 -3.3517,-10.3771 2.648,-8.0381 1.42912,0.5575 2.00772,1.4043 2.1754,2.581"
             id="path10165"
             inkscape:connector-curvature="0"
             style="fill-opacity:0;stroke:#000000;stroke-width:14.35514927;stroke-linecap:round;stroke-linejoin:round;stroke-miterlimit:4;stroke-dasharray:none;stroke-opacity:1" />
          <path
             d="m 871.0247,1561.109 c -1.52642,-1.3473 -2.73836,-3.0002 -3.12149,-4.7933 -1.89564,-8.8678 12.61885,-7.7291 11.82219,2.2124 -0.15899,1.9861 -4.81819,4.6138 -7.3767,3.5394 -4.72262,-1.9827 -5.48279,-11.2956 1.8913,-10.2503 3.11192,0.4409 4.25088,6.6953 2.17539,8.1118 -4.39943,3.0015 -5.82594,-8.519 -1.70278,-6.268 3.68183,2.0092 -0.28321,9.1821 -0.28321,2.0647"
             id="path10167"
             inkscape:connector-curvature="0"
             style="fill-opacity:0;stroke:#000000;stroke-width:14.35514927;stroke-linecap:round;stroke-linejoin:round;stroke-miterlimit:4;stroke-dasharray:none;stroke-opacity:1" />
          <path
             d="m 788.08395,1666.376 c 2.24328,-5.9693 14.79982,-7.5726 21.63575,-7.8364 9.51498,-0.366 22.2812,1.6568 23.88282,10.2964 0.28546,1.541 0.45598,3.6466 -0.35367,5.1029 -4.79728,8.6269 -22.51109,12.4682 -33.69716,9.9323 -8.96679,-2.0326 -16.99829,-15.6303 -10.21794,-18.8963"
             id="path10169"
             inkscape:connector-curvature="0"
             style="fill-opacity:0;stroke:#000000;stroke-width:14.35514927;stroke-linecap:round;stroke-linejoin:round;stroke-miterlimit:4;stroke-dasharray:none;stroke-opacity:1"
             sodipodi:nodetypes="cccccc" />
          <path
             d="m 761.50587,1702.3951 c -3.88422,11.0486 -8.36865,38.0642 -19.13547,60.2895"
             id="path10171"
             inkscape:connector-curvature="0"
             style="fill-opacity:0;stroke:#000000;stroke-width:14.35514927;stroke-linecap:round;stroke-linejoin:round;stroke-miterlimit:4;stroke-dasharray:none;stroke-opacity:1"
             sodipodi:nodetypes="cc" />
          <path
             d="m 742.50359,1761.7133 c -3.40461,6.9225 -6.13185,8.1976 -7.30286,14.8288 -0.0735,0.417 -1.74061,3.8409 -1.26167,4.0822 2.74136,1.3798 1.46954,12.2796 4.6776,12.3983 15.26372,0.5651 38.99567,-12.063 54.23857,-11.3785 7.6239,0.343 16.02071,-2.044 23.674,-1.7234 10.69232,0.4486 21.32529,-4.3866 31.28265,-3.1333 1.37436,0.1727 14.69404,-3.7093 15.55884,-4.2542 1.14896,-0.7223 -1.18751,-9.3058 -0.96948,-11.6367 0.46181,-4.944 0.46426,-9.9065 0.90034,-14.8518 0.22415,-2.529 1.20408,-4.9855 1.62177,-7.483 1.82636,-10.9153 3.78379,-22.3069 3.78379,-33.2192"
             id="path10173"
             inkscape:connector-curvature="0"
             style="fill-opacity:0;stroke:#000000;stroke-width:14.35514927;stroke-linecap:round;stroke-linejoin:round;stroke-miterlimit:4;stroke-dasharray:none;stroke-opacity:1"
             sodipodi:nodetypes="cccccccccccc" />
          <path
             style="fill:#dbb183;fill-opacity:1;fill-rule:evenodd;stroke:#000000;stroke-width:14.35514927;stroke-linecap:round;stroke-linejoin:round;stroke-miterlimit:4;stroke-dasharray:none;stroke-opacity:1"
             d="m 688.36024,1447.3113 c -10.53891,-19.9338 -13.0901,-39.5301 4.35866,-65.1828 10.97323,-6.2626 24.36245,38.1458 23.08445,14.1243 5.12849,-9.8685 5.42824,-42.1641 16.98852,-46.3764 15.00759,5.0475 1.07029,37.1519 18.04208,35.2577 4.82967,-10.8237 8.94655,-21.9787 13.81422,-32.5742 9.87412,-15.4033 14.9054,0.3205 13.3179,10.7778 -1.5e-4,11.3411 9.79358,28.7666 19.18201,12.1884 1.90517,-9.3769 25.04666,-26.99 20.63825,-7.5893 -2.63673,13.8976 13.37989,15.8249 17.71819,3.2127 6.46529,-10.9829 17.346,-7.8435 19.26173,4.1844 0.60108,6.504 4.47104,13.7505 5.44248,2.2866 3.09133,-13.8749 26.00604,-16.5241 30.77537,-2.3023 3.20499,4.6807 -1.61933,27.0022 6.67455,14.0178 7.86124,-9.369 24.52468,-19.7892 30.02953,-2.3469 0.94721,11.3948 11.39876,5.3727 22.58883,7.877 11.45678,7.131 5.79815,30.2021 0.36007,40.417 -8.42812,10.3153 -10.8916,21.1049 -22.57629,28.9755 -6.51822,1.1463 -19.2723,-16.4252 -30.752,-18.0207 -10.80767,-1.502 -25.29158,9.8919 -31.82899,10.3353 -12.07261,-2.422 -5.60962,-15.421 -18.27824,-14.7749 -12.78053,0.6519 -25.525,12.4764 -37.54867,10.1526 -16.75273,-3.2378 -30.52831,-19.5948 -47.77579,-19.1696 -13.60087,0.8264 -29.99511,11.2364 -43.17849,15.1202 -6.49567,0.9138 -25.4814,4.1788 -30.33837,-0.5902 z"
             id="path10175"
             inkscape:connector-curvature="0"
             sodipodi:nodetypes="ccccccccccccccccccscssccc" />
          <path
             style="fill:#dbb183;fill-opacity:1;fill-rule:evenodd;stroke:#000000;stroke-width:14.35514927;stroke-linecap:butt;stroke-linejoin:miter;stroke-miterlimit:4;stroke-dasharray:none;stroke-opacity:1"
             d="m 766.7764,1608.3146 c -5.66309,3.9307 -0.93125,18.2397 -13.17635,19.4079 -6.93551,5.3309 -25.96513,5.8479 -22.39296,17.1547 1.27168,7.3098 4.78413,14.4677 18.20003,10.6598 10.53419,-4.1696 17.44401,-11.0412 27.5604,-15.073 11.91373,-0.9462 23.16582,-8.1416 35.62713,-5.5569 11.3022,2.1075 22.46364,5.8865 34.14764,4.5033 11.70696,-1.86 18.25419,10.1703 28.50225,13.1763 6.89718,10.2288 28.55105,-13.2353 15.05115,-18.5586 -1.82183,-17.2926 -21.30503,-12.5885 -33.93718,-14.9569 -10.60762,-2.2881 -13.71418,-11.5324 -22.43021,-14.3422 -9.37828,-3.0234 -24.27558,0.4273 -33.25372,-0.7373 -10.4537,-1.356 -21.26498,-0.5867 -33.89818,4.3229 z"
             id="path10187"
             inkscape:connector-curvature="0"
             sodipodi:nodetypes="ccccccccccssc" />
          <path
             style="fill:#dbb183;fill-opacity:1;fill-rule:evenodd;stroke:#000000;stroke-width:14.35514927;stroke-linecap:butt;stroke-linejoin:miter;stroke-miterlimit:4;stroke-dasharray:none;stroke-opacity:1"
             d="m 807.52658,1694.4894 c -9.81917,0.368 -22.98594,5.7563 -28.76193,-3.9003 -9.90953,-3.7027 -12.38551,-13.6302 -20.79411,-16.0921 -11.88921,-1.7596 -21.53326,8.3092 -19.51905,18.858 -1.63009,9.8733 -1.32656,20.3787 4.57323,29.6464 3.96875,10.1513 11.36207,-16.5335 14.04085,-0.9802 5.01099,11.5719 20.61656,-6.0952 20.83384,9.4643 7.62536,10.5074 18.64787,-5.896 24.07792,-1.5591 7.03491,18.2327 19.2686,-5.2918 31.57905,-1.1816 8.16146,13.9453 15.97987,-11.7997 23.57096,5.1205 6.54194,-1.7415 12.32421,-10.1414 18.37455,-10.4409 5.03912,-0.2495 10.64302,7.9611 13.50346,3.8936 11.40969,-9.0225 10.2424,-23.373 4.71753,-34.9479 -14.11171,-29.8011 -26.79255,2.1802 -38.51519,2.1579 -11.89226,-0.093 -19.80362,-0.4983 -31.65549,0.495 -2.86615,0.2913 -5.73654,-0.4462 -8.60612,-0.5333 z"
             id="path10192"
             inkscape:connector-curvature="0"
             sodipodi:nodetypes="ccccccccccscccccc" />
        </g>
        <path
           style="fill:none;fill-rule:evenodd;stroke:#000000;stroke-width:13;stroke-linecap:round;stroke-linejoin:round;stroke-miterlimit:4;stroke-dasharray:none;stroke-opacity:1"
           d="m 399.8999,294.52309 c -20.8192,0.22189 -41.0352,-3.7684 -61.7615,-2.77084 -20.6751,0.34916 -42.4274,-3.55444 -61.9875,2.64123 -19.7251,2.12717 -39.2014,3.17941 -59.1854,3.58201 -22.144,0.58174 -44.8217,2.45547 -66.0838,6.0411 -16.2424,1.09767 -31.1034,8.08329 -48.9441,7.30265 -11.5624,-0.87047 -22.2445,2.40203 -33.7074,1.46052 -11.6169,0 -23.2339,0 -34.8507,0 -10.7224,-3.93647 -29.2392,0.82467 -38.8081,1.46032"
           id="path10025"
           inkscape:connector-curvature="0" />
      </g>
    </g>
  </g>
</svg>
